# https://github.com/mikedh/trimesh
v -0.02082449 0.25810170 -0.01499998
v 0.00000000 0.28000000 -0.01499998
v 0.00000000 0.25992361 -0.01499998
v -0.04101628 0.25269130 -0.01499998
v -0.02431070 0.27787301 -0.01499998
v -0.06999999 0.26124349 -0.01499998
v -0.04788279 0.27155700 -0.01499998
v -0.07708537 0.23186681 -0.01499998
v -0.05996179 0.24385691 -0.01499998
v -0.09186679 0.21708541 -0.01499998
v -0.08999025 0.24724621 -0.01499998
v -0.10385690 0.19996171 -0.01499998
v -0.10724620 0.22999020 -0.01499998
v -0.11269130 0.18101621 -0.01499998
v -0.12124350 0.20999990 -0.01499998
v -0.13787310 0.16431069 -0.01499998
v -0.13155690 0.18788280 -0.01499998
v -0.11992360 0.13999990 -0.01499998
v -0.11810170 0.16082449 -0.01499998
v -0.13787310 0.11568920 -0.01499998
v -0.14000000 0.13999990 -0.01499998
v -0.11269130 0.09898370 -0.01499998
v -0.11810170 0.11917540 -0.01499998
v -0.12124350 0.06999999 -0.01499998
v -0.13155690 0.09211713 -0.01499998
v -0.09186679 0.06291455 -0.01499998
v -0.10385690 0.08003818 -0.01499998
v -0.07708537 0.04813313 -0.01499998
v -0.10724620 0.05000966 -0.01499998
v -0.06999999 0.01875638 -0.01499998
v -0.08999025 0.03275376 -0.01499998
v -0.04101628 0.02730864 -0.01499998
v -0.05996179 0.03614306 -0.01499998
v -0.02431070 0.00212687 -0.01499998
v -0.04788279 0.00844300 -0.01499998
v 0.00000000 0.02007633 -0.01499998
v -0.02082449 0.02189826 -0.01499998
v 0.02431070 0.00212687 -0.01499998
v 0.00000000 0.00000000 -0.01499998
v 0.04101628 0.02730864 -0.01499998
v 0.02082449 0.02189826 -0.01499998
v 0.06999999 0.01875638 -0.01499998
v 0.04788279 0.00844300 -0.01499998
v 0.07708537 0.04813313 -0.01499998
v 0.05996179 0.03614306 -0.01499998
v 0.09186679 0.06291455 -0.01499998
v 0.08999025 0.03275376 -0.01499998
v 0.12124350 0.06999999 -0.01499998
v 0.10724620 0.05000966 -0.01499998
v 0.11269130 0.09898370 -0.01499998
v 0.10385690 0.08003818 -0.01499998
v 0.13787310 0.11568920 -0.01499998
v 0.13155690 0.09211713 -0.01499998
v 0.11992360 0.13999990 -0.01499998
v 0.11810170 0.11917540 -0.01499998
v 0.13787310 0.16431069 -0.01499998
v 0.14000000 0.13999990 -0.01499998
v 0.11269130 0.18101621 -0.01499998
v 0.11810170 0.16082449 -0.01499998
v 0.12124350 0.20999990 -0.01499998
v 0.13155690 0.18788280 -0.01499998
v 0.10385690 0.19996171 -0.01499998
v 0.10724620 0.22999020 -0.01499998
v 0.09186679 0.21708541 -0.01499998
v 0.08999025 0.24724621 -0.01499998
v 0.07708537 0.23186681 -0.01499998
v 0.06999999 0.26124349 -0.01499998
v 0.04101628 0.25269130 -0.01499998
v 0.05996179 0.24385691 -0.01499998
v 0.02082449 0.25810170 -0.01499998
v 0.02431070 0.27787301 -0.01499998
v 0.04788279 0.27155700 -0.01499998
v 0.00000000 0.28000000 0.01499998
v -0.02082449 0.25810170 0.01499998
v 0.00000000 0.25992361 0.01499998
v -0.02431070 0.27787301 0.01499998
v -0.04101628 0.25269130 0.01499998
v -0.06999999 0.26124349 0.01499998
v -0.05996179 0.24385691 0.01499998
v -0.07708537 0.23186681 0.01499998
v -0.08999025 0.24724621 0.01499998
v -0.09186679 0.21708541 0.01499998
v -0.10724620 0.22999020 0.01499998
v -0.10385690 0.19996171 0.01499998
v -0.12124350 0.20999990 0.01499998
v -0.11269130 0.18101621 0.01499998
v -0.13787310 0.16431069 0.01499998
v -0.11810170 0.16082449 0.01499998
v -0.11992360 0.13999990 0.01499998
v -0.13787310 0.11568920 0.01499998
v -0.11810170 0.11917540 0.01499998
v -0.11269130 0.09898370 0.01499998
v -0.12124350 0.06999999 0.01499998
v -0.10385690 0.08003818 0.01499998
v -0.09186679 0.06291455 0.01499998
v -0.10724620 0.05000966 0.01499998
v -0.07708537 0.04813313 0.01499998
v -0.06999999 0.01875638 0.01499998
v -0.05996179 0.03614306 0.01499998
v -0.04101628 0.02730864 0.01499998
v -0.02431070 0.00212687 0.01499998
v -0.02082449 0.02189826 0.01499998
v 0.00000000 0.02007633 0.01499998
v 0.02431070 0.00212687 0.01499998
v 0.02082449 0.02189826 0.01499998
v 0.04101628 0.02730864 0.01499998
v 0.06999999 0.01875638 0.01499998
v 0.05996179 0.03614306 0.01499998
v 0.07708537 0.04813313 0.01499998
v 0.08999025 0.03275376 0.01499998
v 0.09186679 0.06291455 0.01499998
v 0.12124350 0.06999999 0.01499998
v 0.10385690 0.08003818 0.01499998
v 0.11269130 0.09898370 0.01499998
v 0.13787310 0.11568920 0.01499998
v 0.11810170 0.11917540 0.01499998
v 0.11992360 0.13999990 0.01499998
v 0.13787310 0.16431069 0.01499998
v 0.11810170 0.16082449 0.01499998
v 0.11269130 0.18101621 0.01499998
v 0.12124350 0.20999990 0.01499998
v 0.10385690 0.19996171 0.01499998
v 0.10724620 0.22999020 0.01499998
v 0.09186679 0.21708541 0.01499998
v 0.08999025 0.24724621 0.01499998
v 0.07708537 0.23186681 0.01499998
v 0.06999999 0.26124349 0.01499998
v 0.05996179 0.24385691 0.01499998
v 0.04101628 0.25269130 0.01499998
v 0.02082449 0.25810170 0.01499998
v 0.02431070 0.27787301 0.01499998
v 0.00000000 0.25992361 -0.01499998
v -0.02082449 0.25810170 0.01499998
v -0.02082449 0.25810170 -0.01499998
v -0.02082449 0.25810170 -0.01499998
v -0.04101628 0.25269130 0.01499998
v -0.04101628 0.25269130 -0.01499998
v -0.04101628 0.25269130 -0.01499998
v -0.05996179 0.24385691 0.01499998
v -0.05996179 0.24385691 -0.01499998
v -0.05996179 0.24385691 -0.01499998
v -0.07708537 0.23186681 0.01499998
v -0.07708537 0.23186681 -0.01499998
v -0.07708537 0.23186681 -0.01499998
v -0.09186679 0.21708541 0.01499998
v -0.09186679 0.21708541 -0.01499998
v -0.09186679 0.21708541 -0.01499998
v -0.10385690 0.19996171 0.01499998
v -0.10385690 0.19996171 -0.01499998
v -0.10385690 0.19996171 -0.01499998
v -0.11269130 0.18101621 0.01499998
v -0.11269130 0.18101621 -0.01499998
v -0.11269130 0.18101621 -0.01499998
v -0.11810170 0.16082449 0.01499998
v -0.11810170 0.16082449 -0.01499998
v -0.11810170 0.16082449 -0.01499998
v -0.11992360 0.13999990 0.01499998
v -0.11992360 0.13999990 -0.01499998
v -0.11992360 0.13999990 -0.01499998
v -0.11810170 0.11917540 0.01499998
v -0.11810170 0.11917540 -0.01499998
v -0.11810170 0.11917540 -0.01499998
v -0.11269130 0.09898370 0.01499998
v -0.11269130 0.09898370 -0.01499998
v -0.11269130 0.09898370 -0.01499998
v -0.10385690 0.08003818 0.01499998
v -0.10385690 0.08003818 -0.01499998
v -0.10385690 0.08003818 -0.01499998
v -0.09186679 0.06291455 0.01499998
v -0.09186679 0.06291455 -0.01499998
v -0.09186679 0.06291455 -0.01499998
v -0.07708537 0.04813313 0.01499998
v -0.07708537 0.04813313 -0.01499998
v -0.07708537 0.04813313 -0.01499998
v -0.05996179 0.03614306 0.01499998
v -0.05996179 0.03614306 -0.01499998
v -0.05996179 0.03614306 -0.01499998
v -0.04101628 0.02730864 0.01499998
v -0.04101628 0.02730864 -0.01499998
v -0.04101628 0.02730864 -0.01499998
v -0.02082449 0.02189826 0.01499998
v -0.02082449 0.02189826 -0.01499998
v -0.02082449 0.02189826 -0.01499998
v 0.00000000 0.02007633 0.01499998
v 0.00000000 0.02007633 -0.01499998
v 0.00000000 0.02007633 -0.01499998
v 0.02082449 0.02189826 0.01499998
v 0.02082449 0.02189826 -0.01499998
v 0.02082449 0.02189826 -0.01499998
v 0.04101628 0.02730864 0.01499998
v 0.04101628 0.02730864 -0.01499998
v 0.04101628 0.02730864 -0.01499998
v 0.05996179 0.03614306 0.01499998
v 0.05996179 0.03614306 -0.01499998
v 0.05996179 0.03614306 -0.01499998
v 0.07708537 0.04813313 0.01499998
v 0.07708537 0.04813313 -0.01499998
v 0.07708537 0.04813313 -0.01499998
v 0.09186679 0.06291455 0.01499998
v 0.09186679 0.06291455 -0.01499998
v 0.09186679 0.06291455 -0.01499998
v 0.10385690 0.08003818 0.01499998
v 0.10385690 0.08003818 -0.01499998
v 0.10385690 0.08003818 -0.01499998
v 0.11269130 0.09898370 0.01499998
v 0.11269130 0.09898370 -0.01499998
v 0.11269130 0.09898370 -0.01499998
v 0.11810170 0.11917540 0.01499998
v 0.11810170 0.11917540 -0.01499998
v 0.11810170 0.11917540 -0.01499998
v 0.11992360 0.13999990 0.01499998
v 0.11992360 0.13999990 -0.01499998
v 0.11992360 0.13999990 -0.01499998
v 0.11810170 0.16082449 0.01499998
v 0.11810170 0.16082449 -0.01499998
v 0.11810170 0.16082449 -0.01499998
v 0.11269130 0.18101621 0.01499998
v 0.11269130 0.18101621 -0.01499998
v 0.11269130 0.18101621 -0.01499998
v 0.10385690 0.19996171 0.01499998
v 0.10385690 0.19996171 -0.01499998
v 0.10385690 0.19996171 -0.01499998
v 0.09186679 0.21708541 0.01499998
v 0.09186679 0.21708541 -0.01499998
v 0.09186679 0.21708541 -0.01499998
v 0.07708537 0.23186681 0.01499998
v 0.07708537 0.23186681 -0.01499998
v 0.07708537 0.23186681 -0.01499998
v 0.05996179 0.24385691 0.01499998
v 0.05996179 0.24385691 -0.01499998
v 0.05996179 0.24385691 -0.01499998
v 0.04101628 0.25269130 0.01499998
v 0.04101628 0.25269130 -0.01499998
v 0.02082449 0.25810170 -0.01499998
v 0.00000000 0.25992361 0.01499998
v 0.00000000 0.25992361 -0.01499998
v 0.04101628 0.25269130 -0.01499998
v 0.02082449 0.25810170 0.01499998
v 0.02082449 0.25810170 -0.01499998
v -0.02431070 0.27787301 -0.01499998
v 0.00000000 0.28000000 0.01499998
v 0.00000000 0.28000000 -0.01499998
v -0.04788279 0.27155700 -0.01499998
v -0.02431070 0.27787301 0.01499998
v -0.02431070 0.27787301 -0.01499998
v -0.06999999 0.26124349 -0.01499998
v -0.04788279 0.27155700 0.01499998
v -0.04788279 0.27155700 -0.01499998
v -0.08999025 0.24724621 -0.01499998
v -0.06999999 0.26124349 0.01499998
v -0.06999999 0.26124349 -0.01499998
v -0.10724620 0.22999020 -0.01499998
v -0.08999025 0.24724621 0.01499998
v -0.08999025 0.24724621 -0.01499998
v -0.12124350 0.20999990 -0.01499998
v -0.10724620 0.22999020 0.01499998
v -0.10724620 0.22999020 -0.01499998
v -0.13155690 0.18788280 -0.01499998
v -0.12124350 0.20999990 0.01499998
v -0.12124350 0.20999990 -0.01499998
v -0.13787310 0.16431069 -0.01499998
v -0.13155690 0.18788280 0.01499998
v -0.13155690 0.18788280 -0.01499998
v -0.14000000 0.13999990 -0.01499998
v -0.13787310 0.16431069 0.01499998
v -0.13787310 0.16431069 -0.01499998
v -0.13787310 0.11568920 -0.01499998
v -0.14000000 0.13999990 0.01499998
v -0.14000000 0.13999990 -0.01499998
v -0.13155690 0.09211713 -0.01499998
v -0.13787310 0.11568920 0.01499998
v -0.13787310 0.11568920 -0.01499998
v -0.12124350 0.06999999 -0.01499998
v -0.13155690 0.09211713 0.01499998
v -0.13155690 0.09211713 -0.01499998
v -0.10724620 0.05000966 -0.01499998
v -0.12124350 0.06999999 0.01499998
v -0.12124350 0.06999999 -0.01499998
v -0.08999025 0.03275376 -0.01499998
v -0.10724620 0.05000966 0.01499998
v -0.10724620 0.05000966 -0.01499998
v -0.06999999 0.01875638 -0.01499998
v -0.08999025 0.03275376 0.01499998
v -0.08999025 0.03275376 -0.01499998
v -0.04788279 0.00844300 -0.01499998
v -0.06999999 0.01875638 0.01499998
v -0.06999999 0.01875638 -0.01499998
v -0.02431070 0.00212687 -0.01499998
v -0.04788279 0.00844300 0.01499998
v -0.04788279 0.00844300 -0.01499998
v 0.00000000 0.00000000 -0.01499998
v -0.02431070 0.00212687 0.01499998
v -0.02431070 0.00212687 -0.01499998
v 0.02431070 0.00212687 -0.01499998
v 0.00000000 0.00000000 0.01499998
v 0.00000000 0.00000000 -0.01499998
v 0.04788279 0.00844300 -0.01499998
v 0.02431070 0.00212687 0.01499998
v 0.02431070 0.00212687 -0.01499998
v 0.06999999 0.01875638 -0.01499998
v 0.04788279 0.00844300 0.01499998
v 0.04788279 0.00844300 -0.01499998
v 0.08999025 0.03275376 -0.01499998
v 0.06999999 0.01875638 0.01499998
v 0.06999999 0.01875638 -0.01499998
v 0.10724620 0.05000966 -0.01499998
v 0.08999025 0.03275376 0.01499998
v 0.08999025 0.03275376 -0.01499998
v 0.12124350 0.06999999 -0.01499998
v 0.10724620 0.05000966 0.01499998
v 0.10724620 0.05000966 -0.01499998
v 0.13155690 0.09211713 -0.01499998
v 0.12124350 0.06999999 0.01499998
v 0.12124350 0.06999999 -0.01499998
v 0.13787310 0.11568920 -0.01499998
v 0.13155690 0.09211713 0.01499998
v 0.13155690 0.09211713 -0.01499998
v 0.14000000 0.13999990 -0.01499998
v 0.13787310 0.11568920 0.01499998
v 0.13787310 0.11568920 -0.01499998
v 0.13787310 0.16431069 -0.01499998
v 0.14000000 0.13999990 0.01499998
v 0.14000000 0.13999990 -0.01499998
v 0.13155690 0.18788280 -0.01499998
v 0.13787310 0.16431069 0.01499998
v 0.13787310 0.16431069 -0.01499998
v 0.12124350 0.20999990 -0.01499998
v 0.13155690 0.18788280 0.01499998
v 0.13155690 0.18788280 -0.01499998
v 0.10724620 0.22999020 -0.01499998
v 0.12124350 0.20999990 0.01499998
v 0.12124350 0.20999990 -0.01499998
v 0.08999025 0.24724621 -0.01499998
v 0.10724620 0.22999020 0.01499998
v 0.10724620 0.22999020 -0.01499998
v 0.06999999 0.26124349 -0.01499998
v 0.08999025 0.24724621 0.01499998
v 0.08999025 0.24724621 -0.01499998
v 0.04788279 0.27155700 -0.01499998
v 0.06999999 0.26124349 0.01499998
v 0.06999999 0.26124349 -0.01499998
v 0.00000000 0.28000000 -0.01499998
v 0.02431070 0.27787301 0.01499998
v 0.02431070 0.27787301 -0.01499998
v 0.02431070 0.27787301 -0.01499998
v 0.04788279 0.27155700 0.01499998
v 0.04788279 0.27155700 -0.01499998
v 1.19981205 0.25992361 -0.01499998
v 1.22412300 0.27787301 -0.01499998
v 1.22063696 0.25810170 -0.01499998
v 1.24769497 0.27155700 -0.01499998
v 1.24082804 0.25269130 -0.01499998
v 1.26981199 0.26124349 -0.01499998
v 1.25977397 0.24385691 -0.01499998
v 1.27689695 0.23186681 -0.01499998
v 1.28980196 0.24724621 -0.01499998
v 1.29167902 0.21708541 -0.01499998
v 1.32105601 0.20999990 -0.01499998
v 1.30366898 0.19996171 -0.01499998
v 1.33136904 0.18788280 -0.01499998
v 1.31250298 0.18101621 -0.01499998
v 1.31791401 0.16082449 -0.01499998
v 1.33981204 0.13999990 -0.01499998
v 1.31973600 0.13999990 -0.01499998
v 1.31791401 0.11917540 -0.01499998
v 1.33136904 0.09211713 -0.01499998
v 1.31250298 0.09898370 -0.01499998
v 1.30366898 0.08003818 -0.01499998
v 1.32105601 0.06999999 -0.01499998
v 1.29167902 0.06291455 -0.01499998
v 1.28980196 0.03275376 -0.01499998
v 1.27689695 0.04813313 -0.01499998
v 1.26981199 0.01875638 -0.01499998
v 1.25977397 0.03614306 -0.01499998
v 1.24082804 0.02730864 -0.01499998
v 1.24769497 0.00844300 -0.01499998
v 1.22063696 0.02189826 -0.01499998
v 1.22412300 0.00212687 -0.01499998
v 1.19981205 0.02007633 -0.01499998
v 1.17550099 0.00212687 -0.01499998
v 1.17898703 0.02189826 -0.01499998
v 1.15192902 0.00844300 -0.01499998
v 1.15879595 0.02730864 -0.01499998
v 1.12981200 0.01875638 -0.01499998
v 1.13985002 0.03614306 -0.01499998
v 1.12272704 0.04813313 -0.01499998
v 1.10982203 0.03275376 -0.01499998
v 1.10794497 0.06291455 -0.01499998
v 1.07856798 0.06999999 -0.01499998
v 1.09595501 0.08003818 -0.01499998
v 1.06825495 0.09211713 -0.01499998
v 1.08712101 0.09898370 -0.01499998
v 1.08170998 0.11917540 -0.01499998
v 1.05981195 0.13999990 -0.01499998
v 1.07988799 0.13999990 -0.01499998
v 1.08170998 0.16082449 -0.01499998
v 1.06825495 0.18788280 -0.01499998
v 1.08712101 0.18101621 -0.01499998
v 1.09595501 0.19996171 -0.01499998
v 1.07856798 0.20999990 -0.01499998
v 1.10794497 0.21708541 -0.01499998
v 1.10982203 0.24724621 -0.01499998
v 1.12272704 0.23186681 -0.01499998
v 1.12981200 0.26124349 -0.01499998
v 1.13985002 0.24385691 -0.01499998
v 1.15879595 0.25269130 -0.01499998
v 1.17550099 0.27787301 -0.01499998
v 1.17898703 0.25810170 -0.01499998
v 1.15192902 0.27155700 -0.01499998
v 1.19981205 0.25992361 0.01499998
v 1.22412300 0.27787301 0.01499998
v 1.19981205 0.28000000 0.01499998
v 1.22063696 0.25810170 0.01499998
v 1.24769497 0.27155700 0.01499998
v 1.24082804 0.25269130 0.01499998
v 1.26981199 0.26124349 0.01499998
v 1.27689695 0.23186681 0.01499998
v 1.25977397 0.24385691 0.01499998
v 1.29167902 0.21708541 0.01499998
v 1.28980196 0.24724621 0.01499998
v 1.32105601 0.20999990 0.01499998
v 1.30705798 0.22999020 0.01499998
v 1.30366898 0.19996171 0.01499998
v 1.33136904 0.18788280 0.01499998
v 1.31791401 0.16082449 0.01499998
v 1.31250298 0.18101621 0.01499998
v 1.33981204 0.13999990 0.01499998
v 1.33768499 0.16431069 0.01499998
v 1.31791401 0.11917540 0.01499998
v 1.31973600 0.13999990 0.01499998
v 1.33136904 0.09211713 0.01499998
v 1.33768499 0.11568920 0.01499998
v 1.30366898 0.08003818 0.01499998
v 1.31250298 0.09898370 0.01499998
v 1.29167902 0.06291455 0.01499998
v 1.32105601 0.06999999 0.01499998
v 1.28980196 0.03275376 0.01499998
v 1.30705798 0.05000966 0.01499998
v 1.27689695 0.04813313 0.01499998
v 1.26981199 0.01875638 0.01499998
v 1.24082804 0.02730864 0.01499998
v 1.25977397 0.03614306 0.01499998
v 1.22063696 0.02189826 0.01499998
v 1.24769497 0.00844300 0.01499998
v 1.19981205 0.02007633 0.01499998
v 1.22412300 0.00212687 0.01499998
v 1.17550099 0.00212687 0.01499998
v 1.19981205 0.00000000 0.01499998
v 1.17898703 0.02189826 0.01499998
v 1.15192902 0.00844300 0.01499998
v 1.15879595 0.02730864 0.01499998
v 1.12981200 0.01875638 0.01499998
v 1.12272704 0.04813313 0.01499998
v 1.13985002 0.03614306 0.01499998
v 1.10794497 0.06291455 0.01499998
v 1.10982203 0.03275376 0.01499998
v 1.07856798 0.06999999 0.01499998
v 1.09256601 0.05000966 0.01499998
v 1.09595501 0.08003818 0.01499998
v 1.06825495 0.09211713 0.01499998
v 1.08170998 0.11917540 0.01499998
v 1.08712101 0.09898370 0.01499998
v 1.05981195 0.13999990 0.01499998
v 1.06193900 0.11568920 0.01499998
v 1.08170998 0.16082449 0.01499998
v 1.07988799 0.13999990 0.01499998
v 1.06825495 0.18788280 0.01499998
v 1.06193900 0.16431069 0.01499998
v 1.09595501 0.19996171 0.01499998
v 1.08712101 0.18101621 0.01499998
v 1.10794497 0.21708541 0.01499998
v 1.07856798 0.20999990 0.01499998
v 1.10982203 0.24724621 0.01499998
v 1.09256601 0.22999020 0.01499998
v 1.12272704 0.23186681 0.01499998
v 1.12981200 0.26124349 0.01499998
v 1.15879595 0.25269130 0.01499998
v 1.13985002 0.24385691 0.01499998
v 1.17550099 0.27787301 0.01499998
v 1.17898703 0.25810170 0.01499998
v 1.15192902 0.27155700 0.01499998
v 1.22063696 0.25810170 0.01499998
v 1.19981205 0.25992361 -0.01499998
v 1.22063696 0.25810170 -0.01499998
v 1.24082804 0.25269130 0.01499998
v 1.22063696 0.25810170 -0.01499998
v 1.24082804 0.25269130 -0.01499998
v 1.25977397 0.24385691 0.01499998
v 1.24082804 0.25269130 -0.01499998
v 1.25977397 0.24385691 -0.01499998
v 1.27689695 0.23186681 0.01499998
v 1.25977397 0.24385691 -0.01499998
v 1.27689695 0.23186681 -0.01499998
v 1.29167902 0.21708541 0.01499998
v 1.27689695 0.23186681 -0.01499998
v 1.29167902 0.21708541 -0.01499998
v 1.30366898 0.19996171 0.01499998
v 1.29167902 0.21708541 -0.01499998
v 1.30366898 0.19996171 -0.01499998
v 1.31250298 0.18101621 0.01499998
v 1.30366898 0.19996171 -0.01499998
v 1.31250298 0.18101621 -0.01499998
v 1.31791401 0.16082449 0.01499998
v 1.31250298 0.18101621 -0.01499998
v 1.31791401 0.16082449 -0.01499998
v 1.31973600 0.13999990 0.01499998
v 1.31791401 0.16082449 -0.01499998
v 1.31973600 0.13999990 -0.01499998
v 1.31791401 0.11917540 0.01499998
v 1.31973600 0.13999990 -0.01499998
v 1.31791401 0.11917540 -0.01499998
v 1.31250298 0.09898370 0.01499998
v 1.31791401 0.11917540 -0.01499998
v 1.31250298 0.09898370 -0.01499998
v 1.30366898 0.08003818 0.01499998
v 1.31250298 0.09898370 -0.01499998
v 1.30366898 0.08003818 -0.01499998
v 1.29167902 0.06291455 0.01499998
v 1.30366898 0.08003818 -0.01499998
v 1.29167902 0.06291455 -0.01499998
v 1.27689695 0.04813313 0.01499998
v 1.29167902 0.06291455 -0.01499998
v 1.27689695 0.04813313 -0.01499998
v 1.25977397 0.03614306 0.01499998
v 1.27689695 0.04813313 -0.01499998
v 1.25977397 0.03614306 -0.01499998
v 1.24082804 0.02730864 0.01499998
v 1.25977397 0.03614306 -0.01499998
v 1.24082804 0.02730864 -0.01499998
v 1.22063696 0.02189826 0.01499998
v 1.24082804 0.02730864 -0.01499998
v 1.22063696 0.02189826 -0.01499998
v 1.19981205 0.02007633 0.01499998
v 1.22063696 0.02189826 -0.01499998
v 1.19981205 0.02007633 -0.01499998
v 1.17898703 0.02189826 0.01499998
v 1.19981205 0.02007633 -0.01499998
v 1.17898703 0.02189826 -0.01499998
v 1.15879595 0.02730864 0.01499998
v 1.17898703 0.02189826 -0.01499998
v 1.15879595 0.02730864 -0.01499998
v 1.13985002 0.03614306 0.01499998
v 1.15879595 0.02730864 -0.01499998
v 1.13985002 0.03614306 -0.01499998
v 1.12272704 0.04813313 0.01499998
v 1.13985002 0.03614306 -0.01499998
v 1.12272704 0.04813313 -0.01499998
v 1.10794497 0.06291455 0.01499998
v 1.12272704 0.04813313 -0.01499998
v 1.10794497 0.06291455 -0.01499998
v 1.09595501 0.08003818 0.01499998
v 1.10794497 0.06291455 -0.01499998
v 1.09595501 0.08003818 -0.01499998
v 1.08712101 0.09898370 0.01499998
v 1.09595501 0.08003818 -0.01499998
v 1.08712101 0.09898370 -0.01499998
v 1.08170998 0.11917540 0.01499998
v 1.08712101 0.09898370 -0.01499998
v 1.08170998 0.11917540 -0.01499998
v 1.07988799 0.13999990 0.01499998
v 1.08170998 0.11917540 -0.01499998
v 1.07988799 0.13999990 -0.01499998
v 1.08170998 0.16082449 0.01499998
v 1.07988799 0.13999990 -0.01499998
v 1.08170998 0.16082449 -0.01499998
v 1.08712101 0.18101621 0.01499998
v 1.08170998 0.16082449 -0.01499998
v 1.08712101 0.18101621 -0.01499998
v 1.09595501 0.19996171 0.01499998
v 1.08712101 0.18101621 -0.01499998
v 1.09595501 0.19996171 -0.01499998
v 1.10794497 0.21708541 0.01499998
v 1.09595501 0.19996171 -0.01499998
v 1.10794497 0.21708541 -0.01499998
v 1.12272704 0.23186681 0.01499998
v 1.10794497 0.21708541 -0.01499998
v 1.12272704 0.23186681 -0.01499998
v 1.13985002 0.24385691 0.01499998
v 1.12272704 0.23186681 -0.01499998
v 1.13985002 0.24385691 -0.01499998
v 1.15879595 0.25269130 0.01499998
v 1.13985002 0.24385691 -0.01499998
v 1.15879595 0.25269130 -0.01499998
v 1.19981205 0.25992361 0.01499998
v 1.17898703 0.25810170 -0.01499998
v 1.19981205 0.25992361 -0.01499998
v 1.17898703 0.25810170 0.01499998
v 1.15879595 0.25269130 -0.01499998
v 1.17898703 0.25810170 -0.01499998
v 1.19981205 0.28000000 0.01499998
v 1.22412300 0.27787301 -0.01499998
v 1.19981205 0.28000000 -0.01499998
v 1.22412300 0.27787301 0.01499998
v 1.24769497 0.27155700 -0.01499998
v 1.22412300 0.27787301 -0.01499998
v 1.24769497 0.27155700 0.01499998
v 1.26981199 0.26124349 -0.01499998
v 1.24769497 0.27155700 -0.01499998
v 1.26981199 0.26124349 0.01499998
v 1.28980196 0.24724621 -0.01499998
v 1.26981199 0.26124349 -0.01499998
v 1.28980196 0.24724621 0.01499998
v 1.30705798 0.22999020 -0.01499998
v 1.28980196 0.24724621 -0.01499998
v 1.30705798 0.22999020 0.01499998
v 1.32105601 0.20999990 -0.01499998
v 1.30705798 0.22999020 -0.01499998
v 1.32105601 0.20999990 0.01499998
v 1.33136904 0.18788280 -0.01499998
v 1.32105601 0.20999990 -0.01499998
v 1.33136904 0.18788280 0.01499998
v 1.33768499 0.16431069 -0.01499998
v 1.33136904 0.18788280 -0.01499998
v 1.33768499 0.16431069 0.01499998
v 1.33981204 0.13999990 -0.01499998
v 1.33768499 0.16431069 -0.01499998
v 1.33981204 0.13999990 0.01499998
v 1.33768499 0.11568920 -0.01499998
v 1.33981204 0.13999990 -0.01499998
v 1.33768499 0.11568920 0.01499998
v 1.33136904 0.09211713 -0.01499998
v 1.33768499 0.11568920 -0.01499998
v 1.33136904 0.09211713 0.01499998
v 1.32105601 0.06999999 -0.01499998
v 1.33136904 0.09211713 -0.01499998
v 1.32105601 0.06999999 0.01499998
v 1.30705798 0.05000966 -0.01499998
v 1.32105601 0.06999999 -0.01499998
v 1.30705798 0.05000966 0.01499998
v 1.28980196 0.03275376 -0.01499998
v 1.30705798 0.05000966 -0.01499998
v 1.28980196 0.03275376 0.01499998
v 1.26981199 0.01875638 -0.01499998
v 1.28980196 0.03275376 -0.01499998
v 1.26981199 0.01875638 0.01499998
v 1.24769497 0.00844300 -0.01499998
v 1.26981199 0.01875638 -0.01499998
v 1.24769497 0.00844300 0.01499998
v 1.22412300 0.00212687 -0.01499998
v 1.24769497 0.00844300 -0.01499998
v 1.22412300 0.00212687 0.01499998
v 1.19981205 0.00000000 -0.01499998
v 1.22412300 0.00212687 -0.01499998
v 1.19981205 0.00000000 0.01499998
v 1.17550099 0.00212687 -0.01499998
v 1.19981205 0.00000000 -0.01499998
v 1.17550099 0.00212687 0.01499998
v 1.15192902 0.00844300 -0.01499998
v 1.17550099 0.00212687 -0.01499998
v 1.15192902 0.00844300 0.01499998
v 1.12981200 0.01875638 -0.01499998
v 1.15192902 0.00844300 -0.01499998
v 1.12981200 0.01875638 0.01499998
v 1.10982203 0.03275376 -0.01499998
v 1.12981200 0.01875638 -0.01499998
v 1.10982203 0.03275376 0.01499998
v 1.09256601 0.05000966 -0.01499998
v 1.10982203 0.03275376 -0.01499998
v 1.09256601 0.05000966 0.01499998
v 1.07856798 0.06999999 -0.01499998
v 1.09256601 0.05000966 -0.01499998
v 1.07856798 0.06999999 0.01499998
v 1.06825495 0.09211713 -0.01499998
v 1.07856798 0.06999999 -0.01499998
v 1.06825495 0.09211713 0.01499998
v 1.06193900 0.11568920 -0.01499998
v 1.06825495 0.09211713 -0.01499998
v 1.06193900 0.11568920 0.01499998
v 1.05981195 0.13999990 -0.01499998
v 1.06193900 0.11568920 -0.01499998
v 1.05981195 0.13999990 0.01499998
v 1.06193900 0.16431069 -0.01499998
v 1.05981195 0.13999990 -0.01499998
v 1.06193900 0.16431069 0.01499998
v 1.06825495 0.18788280 -0.01499998
v 1.06193900 0.16431069 -0.01499998
v 1.06825495 0.18788280 0.01499998
v 1.07856798 0.20999990 -0.01499998
v 1.06825495 0.18788280 -0.01499998
v 1.07856798 0.20999990 0.01499998
v 1.09256601 0.22999020 -0.01499998
v 1.07856798 0.20999990 -0.01499998
v 1.09256601 0.22999020 0.01499998
v 1.10982203 0.24724621 -0.01499998
v 1.09256601 0.22999020 -0.01499998
v 1.10982203 0.24724621 0.01499998
v 1.12981200 0.26124349 -0.01499998
v 1.10982203 0.24724621 -0.01499998
v 1.12981200 0.26124349 0.01499998
v 1.15192902 0.27155700 -0.01499998
v 1.12981200 0.26124349 -0.01499998
v 1.17550099 0.27787301 0.01499998
v 1.19981205 0.28000000 -0.01499998
v 1.17550099 0.27787301 -0.01499998
v 1.15192902 0.27155700 0.01499998
v 1.17550099 0.27787301 -0.01499998
v 1.15192902 0.27155700 -0.01499998
v -0.04788279 0.27155700 0.01499998
v -0.13155690 0.18788280 0.01499998
v -0.14000000 0.13999990 0.01499998
v -0.13155690 0.09211713 0.01499998
v -0.08999025 0.03275376 0.01499998
v -0.04788279 0.00844300 0.01499998
v 0.00000000 0.00000000 0.01499998
v 0.04788279 0.00844300 0.01499998
v 0.10724620 0.05000966 0.01499998
v 0.13155690 0.09211713 0.01499998
v 0.14000000 0.13999990 0.01499998
v 0.13155690 0.18788280 0.01499998
v 0.04788279 0.27155700 0.01499998
v 0.00000000 0.25992361 0.01499998
v -0.02082449 0.25810170 0.01499998
v -0.04101628 0.25269130 0.01499998
v -0.05996179 0.24385691 0.01499998
v -0.07708537 0.23186681 0.01499998
v -0.09186679 0.21708541 0.01499998
v -0.10385690 0.19996171 0.01499998
v -0.11269130 0.18101621 0.01499998
v -0.11810170 0.16082449 0.01499998
v -0.11992360 0.13999990 0.01499998
v -0.11810170 0.11917540 0.01499998
v -0.11269130 0.09898370 0.01499998
v -0.10385690 0.08003818 0.01499998
v -0.09186679 0.06291455 0.01499998
v -0.07708537 0.04813313 0.01499998
v -0.05996179 0.03614306 0.01499998
v -0.04101628 0.02730864 0.01499998
v -0.02082449 0.02189826 0.01499998
v 0.00000000 0.02007633 0.01499998
v 0.02082449 0.02189826 0.01499998
v 0.04101628 0.02730864 0.01499998
v 0.05996179 0.03614306 0.01499998
v 0.07708537 0.04813313 0.01499998
v 0.09186679 0.06291455 0.01499998
v 0.10385690 0.08003818 0.01499998
v 0.11269130 0.09898370 0.01499998
v 0.11810170 0.11917540 0.01499998
v 0.11992360 0.13999990 0.01499998
v 0.11810170 0.16082449 0.01499998
v 0.11269130 0.18101621 0.01499998
v 0.10385690 0.19996171 0.01499998
v 0.09186679 0.21708541 0.01499998
v 0.07708537 0.23186681 0.01499998
v 0.05996179 0.24385691 0.01499998
v 0.02082449 0.25810170 0.01499998
v 0.04101628 0.25269130 0.01499998
v -0.02431070 0.27787301 0.01499998
v -0.04788279 0.27155700 0.01499998
v -0.06999999 0.26124349 0.01499998
v -0.08999025 0.24724621 0.01499998
v -0.10724620 0.22999020 0.01499998
v -0.12124350 0.20999990 0.01499998
v -0.13155690 0.18788280 0.01499998
v -0.13787310 0.16431069 0.01499998
v -0.14000000 0.13999990 0.01499998
v -0.13787310 0.11568920 0.01499998
v -0.13155690 0.09211713 0.01499998
v -0.12124350 0.06999999 0.01499998
v -0.10724620 0.05000966 0.01499998
v -0.08999025 0.03275376 0.01499998
v -0.06999999 0.01875638 0.01499998
v -0.04788279 0.00844300 0.01499998
v -0.02431070 0.00212687 0.01499998
v 0.00000000 0.00000000 0.01499998
v 0.02431070 0.00212687 0.01499998
v 0.04788279 0.00844300 0.01499998
v 0.06999999 0.01875638 0.01499998
v 0.08999025 0.03275376 0.01499998
v 0.10724620 0.05000966 0.01499998
v 0.12124350 0.06999999 0.01499998
v 0.13155690 0.09211713 0.01499998
v 0.13787310 0.11568920 0.01499998
v 0.14000000 0.13999990 0.01499998
v 0.13787310 0.16431069 0.01499998
v 0.13155690 0.18788280 0.01499998
v 0.12124350 0.20999990 0.01499998
v 0.10724620 0.22999020 0.01499998
v 0.08999025 0.24724621 0.01499998
v 0.06999999 0.26124349 0.01499998
v 0.04788279 0.27155700 0.01499998
v 0.00000000 0.28000000 0.01499998
v 0.02431070 0.27787301 0.01499998
v 1.19981205 0.28000000 -0.01499998
v 1.30705798 0.22999020 -0.01499998
v 1.33768499 0.16431069 -0.01499998
v 1.33768499 0.11568920 -0.01499998
v 1.30705798 0.05000966 -0.01499998
v 1.19981205 0.00000000 -0.01499998
v 1.09256601 0.05000966 -0.01499998
v 1.06193900 0.11568920 -0.01499998
v 1.06193900 0.16431069 -0.01499998
v 1.09256601 0.22999020 -0.01499998
v 1.19981205 0.25992361 0.01499998
v 1.22063696 0.25810170 0.01499998
v 1.24082804 0.25269130 0.01499998
v 1.25977397 0.24385691 0.01499998
v 1.27689695 0.23186681 0.01499998
v 1.29167902 0.21708541 0.01499998
v 1.30366898 0.19996171 0.01499998
v 1.31250298 0.18101621 0.01499998
v 1.31791401 0.16082449 0.01499998
v 1.31973600 0.13999990 0.01499998
v 1.31791401 0.11917540 0.01499998
v 1.31250298 0.09898370 0.01499998
v 1.30366898 0.08003818 0.01499998
v 1.29167902 0.06291455 0.01499998
v 1.27689695 0.04813313 0.01499998
v 1.25977397 0.03614306 0.01499998
v 1.24082804 0.02730864 0.01499998
v 1.22063696 0.02189826 0.01499998
v 1.19981205 0.02007633 0.01499998
v 1.17898703 0.02189826 0.01499998
v 1.15879595 0.02730864 0.01499998
v 1.13985002 0.03614306 0.01499998
v 1.12272704 0.04813313 0.01499998
v 1.10794497 0.06291455 0.01499998
v 1.09595501 0.08003818 0.01499998
v 1.08712101 0.09898370 0.01499998
v 1.08170998 0.11917540 0.01499998
v 1.07988799 0.13999990 0.01499998
v 1.08170998 0.16082449 0.01499998
v 1.08712101 0.18101621 0.01499998
v 1.09595501 0.19996171 0.01499998
v 1.10794497 0.21708541 0.01499998
v 1.12272704 0.23186681 0.01499998
v 1.13985002 0.24385691 0.01499998
v 1.17898703 0.25810170 0.01499998
v 1.15879595 0.25269130 0.01499998
v 1.22412300 0.27787301 0.01499998
v 1.24769497 0.27155700 0.01499998
v 1.26981199 0.26124349 0.01499998
v 1.28980196 0.24724621 0.01499998
v 1.30705798 0.22999020 0.01499998
v 1.32105601 0.20999990 0.01499998
v 1.33136904 0.18788280 0.01499998
v 1.33768499 0.16431069 0.01499998
v 1.33981204 0.13999990 0.01499998
v 1.33768499 0.11568920 0.01499998
v 1.33136904 0.09211713 0.01499998
v 1.32105601 0.06999999 0.01499998
v 1.30705798 0.05000966 0.01499998
v 1.28980196 0.03275376 0.01499998
v 1.26981199 0.01875638 0.01499998
v 1.24769497 0.00844300 0.01499998
v 1.22412300 0.00212687 0.01499998
v 1.19981205 0.00000000 0.01499998
v 1.17550099 0.00212687 0.01499998
v 1.15192902 0.00844300 0.01499998
v 1.12981200 0.01875638 0.01499998
v 1.10982203 0.03275376 0.01499998
v 1.09256601 0.05000966 0.01499998
v 1.07856798 0.06999999 0.01499998
v 1.06825495 0.09211713 0.01499998
v 1.06193900 0.11568920 0.01499998
v 1.05981195 0.13999990 0.01499998
v 1.06193900 0.16431069 0.01499998
v 1.06825495 0.18788280 0.01499998
v 1.07856798 0.20999990 0.01499998
v 1.09256601 0.22999020 0.01499998
v 1.10982203 0.24724621 0.01499998
v 1.12981200 0.26124349 0.01499998
v 1.15192902 0.27155700 0.01499998
v 1.19981205 0.28000000 0.01499998
v 1.17550099 0.27787301 0.01499998
vn 0.00000000 0.00000000 -1.00000000
vn 0.00000000 0.00000000 -1.00000000
vn 0.00000000 0.00000000 -1.00000000
vn 0.00000000 0.00000000 -1.00000000
vn 0.00000000 0.00000000 -1.00000000
vn 0.00000000 0.00000000 -1.00000000
vn 0.00000000 0.00000000 -1.00000000
vn 0.00000000 0.00000000 -1.00000000
vn 0.00000000 0.00000000 -1.00000000
vn 0.00000000 0.00000000 -1.00000000
vn 0.00000000 0.00000000 -1.00000000
vn 0.00000000 0.00000000 -1.00000000
vn 0.00000000 0.00000000 -1.00000000
vn 0.00000000 0.00000000 -1.00000000
vn 0.00000000 0.00000000 -1.00000000
vn 0.00000000 0.00000000 -1.00000000
vn 0.00000000 0.00000000 -1.00000000
vn 0.00000000 0.00000000 -1.00000000
vn 0.00000000 0.00000000 -1.00000000
vn 0.00000000 0.00000000 -1.00000000
vn 0.00000000 0.00000000 -1.00000000
vn 0.00000000 0.00000000 -1.00000000
vn 0.00000000 0.00000000 -1.00000000
vn 0.00000000 0.00000000 -1.00000000
vn 0.00000000 0.00000000 -1.00000000
vn 0.00000000 0.00000000 -1.00000000
vn 0.00000000 0.00000000 -1.00000000
vn 0.00000000 0.00000000 -1.00000000
vn 0.00000000 0.00000000 -1.00000000
vn 0.00000000 0.00000000 -1.00000000
vn 0.00000000 0.00000000 -1.00000000
vn 0.00000000 0.00000000 -1.00000000
vn 0.00000000 0.00000000 -1.00000000
vn 0.00000000 0.00000000 -1.00000000
vn 0.00000000 0.00000000 -1.00000000
vn 0.00000000 0.00000000 -1.00000000
vn 0.00000000 0.00000000 -1.00000000
vn 0.00000000 0.00000000 -1.00000000
vn 0.00000000 0.00000000 -1.00000000
vn 0.00000000 0.00000000 -1.00000000
vn 0.00000000 0.00000000 -1.00000000
vn 0.00000000 0.00000000 -1.00000000
vn 0.00000000 0.00000000 -1.00000000
vn 0.00000000 0.00000000 -1.00000000
vn 0.00000000 0.00000000 -1.00000000
vn 0.00000000 0.00000000 -1.00000000
vn 0.00000000 0.00000000 -1.00000000
vn 0.00000000 0.00000000 -1.00000000
vn 0.00000000 0.00000000 -1.00000000
vn 0.00000000 0.00000000 -1.00000000
vn 0.00000000 0.00000000 -1.00000000
vn 0.00000000 0.00000000 -1.00000000
vn 0.00000000 0.00000000 -1.00000000
vn 0.00000000 0.00000000 -1.00000000
vn 0.00000000 0.00000000 -1.00000000
vn 0.00000000 0.00000000 -1.00000000
vn 0.00000000 0.00000000 -1.00000000
vn 0.00000000 0.00000000 -1.00000000
vn 0.00000000 0.00000000 -1.00000000
vn 0.00000000 0.00000000 -1.00000000
vn 0.00000000 0.00000000 -1.00000000
vn 0.00000000 0.00000000 -1.00000000
vn 0.00000000 0.00000000 -1.00000000
vn 0.00000000 0.00000000 -1.00000000
vn 0.00000000 0.00000000 -1.00000000
vn 0.00000000 0.00000000 -1.00000000
vn 0.00000000 0.00000000 -1.00000000
vn 0.00000000 0.00000000 -1.00000000
vn 0.00000000 0.00000000 -1.00000000
vn 0.00000000 0.00000000 -1.00000000
vn 0.00000000 0.00000000 -1.00000000
vn 0.00000000 0.00000000 -1.00000000
vn 0.00000000 0.00000000 1.00000000
vn 0.00000000 0.00000000 1.00000000
vn 0.00000000 0.00000000 1.00000000
vn 0.00000000 0.00000000 1.00000000
vn 0.00000000 0.00000000 1.00000000
vn 0.00000000 0.00000000 1.00000000
vn 0.00000000 0.00000000 1.00000000
vn 0.00000000 0.00000000 1.00000000
vn 0.00000000 0.00000000 1.00000000
vn 0.00000000 0.00000000 1.00000000
vn 0.00000000 0.00000000 1.00000000
vn 0.00000000 0.00000000 1.00000000
vn 0.00000000 0.00000000 1.00000000
vn 0.00000000 0.00000000 1.00000000
vn 0.00000000 0.00000000 1.00000000
vn 0.00000000 0.00000000 1.00000000
vn 0.00000000 0.00000000 1.00000000
vn 0.00000000 0.00000000 1.00000000
vn 0.00000000 0.00000000 1.00000000
vn 0.00000000 0.00000000 1.00000000
vn 0.00000000 0.00000000 1.00000000
vn 0.00000000 0.00000000 1.00000000
vn 0.00000000 0.00000000 1.00000000
vn 0.00000000 0.00000000 1.00000000
vn 0.00000000 0.00000000 1.00000000
vn 0.00000000 0.00000000 1.00000000
vn 0.00000000 0.00000000 1.00000000
vn 0.00000000 0.00000000 1.00000000
vn 0.00000000 0.00000000 1.00000000
vn 0.00000000 0.00000000 1.00000000
vn 0.00000000 0.00000000 1.00000000
vn 0.00000000 0.00000000 1.00000000
vn 0.00000000 0.00000000 1.00000000
vn 0.00000000 0.00000000 1.00000000
vn 0.00000000 0.00000000 1.00000000
vn 0.00000000 0.00000000 1.00000000
vn 0.00000000 0.00000000 1.00000000
vn 0.00000000 0.00000000 1.00000000
vn 0.00000000 0.00000000 1.00000000
vn 0.00000000 0.00000000 1.00000000
vn 0.00000000 0.00000000 1.00000000
vn 0.00000000 0.00000000 1.00000000
vn 0.00000000 0.00000000 1.00000000
vn 0.00000000 0.00000000 1.00000000
vn 0.00000000 0.00000000 1.00000000
vn 0.00000000 0.00000000 1.00000000
vn 0.00000000 0.00000000 1.00000000
vn 0.00000000 0.00000000 1.00000000
vn 0.00000000 0.00000000 1.00000000
vn 0.00000000 0.00000000 1.00000000
vn 0.00000000 0.00000000 1.00000000
vn 0.00000000 0.00000000 1.00000000
vn 0.00000000 0.00000000 1.00000000
vn 0.00000000 0.00000000 1.00000000
vn 0.00000000 0.00000000 1.00000000
vn 0.00000000 0.00000000 1.00000000
vn 0.00000000 0.00000000 1.00000000
vn 0.00000000 0.00000000 1.00000000
vn 0.00000000 0.00000000 1.00000000
vn 0.08715552 -0.99619472 0.00000000
vn 0.08715552 -0.99619472 0.00000000
vn 0.08715552 -0.99619472 0.00000000
vn 0.25881800 -0.96592617 0.00000000
vn 0.25881800 -0.96592617 0.00000000
vn 0.25881800 -0.96592617 0.00000000
vn 0.42261881 -0.90630752 0.00000000
vn 0.42261881 -0.90630752 0.00000000
vn 0.42261881 -0.90630752 0.00000000
vn 0.57357663 -0.81915188 0.00000000
vn 0.57357663 -0.81915188 0.00000000
vn 0.57357663 -0.81915188 0.00000000
vn 0.70710683 -0.70710683 0.00000000
vn 0.70710683 -0.70710683 0.00000000
vn 0.70710683 -0.70710683 0.00000000
vn 0.81915212 -0.57357639 0.00000000
vn 0.81915212 -0.57357639 0.00000000
vn 0.81915212 -0.57357639 0.00000000
vn 0.90630770 -0.42261851 0.00000000
vn 0.90630770 -0.42261851 0.00000000
vn 0.90630770 -0.42261851 0.00000000
vn 0.96592581 -0.25881910 0.00000000
vn 0.96592581 -0.25881910 0.00000000
vn 0.96592581 -0.25881910 0.00000000
vn 0.99619472 -0.08715587 0.00000000
vn 0.99619472 -0.08715587 0.00000000
vn 0.99619472 -0.08715587 0.00000000
vn 0.99619472 0.08715587 0.00000000
vn 0.99619472 0.08715587 0.00000000
vn 0.99619472 0.08715587 0.00000000
vn 0.96592587 0.25881860 0.00000000
vn 0.96592587 0.25881860 0.00000000
vn 0.96592587 0.25881860 0.00000000
vn 0.90630752 0.42261890 0.00000000
vn 0.90630752 0.42261890 0.00000000
vn 0.90630752 0.42261890 0.00000000
vn 0.81915212 0.57357627 0.00000000
vn 0.81915212 0.57357627 0.00000000
vn 0.81915212 0.57357627 0.00000000
vn 0.70710683 0.70710683 0.00000000
vn 0.70710683 0.70710683 0.00000000
vn 0.70710683 0.70710683 0.00000000
vn 0.57357651 0.81915200 0.00000000
vn 0.57357651 0.81915200 0.00000000
vn 0.57357651 0.81915200 0.00000000
vn 0.42261851 0.90630770 0.00000000
vn 0.42261851 0.90630770 0.00000000
vn 0.42261851 0.90630770 0.00000000
vn 0.25881889 0.96592587 0.00000000
vn 0.25881889 0.96592587 0.00000000
vn 0.25881889 0.96592587 0.00000000
vn 0.08715587 0.99619472 0.00000000
vn 0.08715587 0.99619472 0.00000000
vn 0.08715587 0.99619472 0.00000000
vn -0.08715587 0.99619472 0.00000000
vn -0.08715587 0.99619472 0.00000000
vn -0.08715587 0.99619472 0.00000000
vn -0.25881860 0.96592587 0.00000000
vn -0.25881860 0.96592587 0.00000000
vn -0.25881860 0.96592587 0.00000000
vn -0.42261881 0.90630752 0.00000000
vn -0.42261881 0.90630752 0.00000000
vn -0.42261881 0.90630752 0.00000000
vn -0.57357639 0.81915212 0.00000000
vn -0.57357639 0.81915212 0.00000000
vn -0.57357639 0.81915212 0.00000000
vn -0.70710683 0.70710683 0.00000000
vn -0.70710683 0.70710683 0.00000000
vn -0.70710683 0.70710683 0.00000000
vn -0.81915212 0.57357639 0.00000000
vn -0.81915212 0.57357639 0.00000000
vn -0.81915212 0.57357639 0.00000000
vn -0.90630758 0.42261860 0.00000000
vn -0.90630758 0.42261860 0.00000000
vn -0.90630758 0.42261860 0.00000000
vn -0.96592581 0.25881889 0.00000000
vn -0.96592581 0.25881889 0.00000000
vn -0.96592581 0.25881889 0.00000000
vn -0.99619472 0.08715587 0.00000000
vn -0.99619472 0.08715587 0.00000000
vn -0.99619472 0.08715587 0.00000000
vn -0.99619472 -0.08715587 0.00000000
vn -0.99619472 -0.08715587 0.00000000
vn -0.99619472 -0.08715587 0.00000000
vn -0.96592587 -0.25881869 0.00000000
vn -0.96592587 -0.25881869 0.00000000
vn -0.96592587 -0.25881869 0.00000000
vn -0.90630752 -0.42261881 0.00000000
vn -0.90630752 -0.42261881 0.00000000
vn -0.90630752 -0.42261881 0.00000000
vn -0.81915212 -0.57357639 0.00000000
vn -0.81915212 -0.57357639 0.00000000
vn -0.81915212 -0.57357639 0.00000000
vn -0.70710683 -0.70710683 0.00000000
vn -0.70710683 -0.70710683 0.00000000
vn -0.70710683 -0.70710683 0.00000000
vn -0.57357663 -0.81915188 0.00000000
vn -0.57357663 -0.81915188 0.00000000
vn -0.57357663 -0.81915188 0.00000000
vn -0.42261881 -0.90630752 0.00000000
vn -0.42261881 -0.90630752 0.00000000
vn -0.42261881 -0.90630752 0.00000000
vn -0.08715552 -0.99619472 0.00000000
vn -0.08715552 -0.99619472 0.00000000
vn -0.08715552 -0.99619472 0.00000000
vn -0.25881800 -0.96592617 0.00000000
vn -0.25881800 -0.96592617 0.00000000
vn -0.25881800 -0.96592617 0.00000000
vn -0.08715522 0.99619472 0.00000000
vn -0.08715522 0.99619472 0.00000000
vn -0.08715522 0.99619472 0.00000000
vn -0.25881821 0.96592611 0.00000000
vn -0.25881821 0.96592611 0.00000000
vn -0.25881821 0.96592611 0.00000000
vn -0.42261970 0.90630722 0.00000000
vn -0.42261970 0.90630722 0.00000000
vn -0.42261970 0.90630722 0.00000000
vn -0.57357597 0.81915241 0.00000000
vn -0.57357597 0.81915241 0.00000000
vn -0.57357597 0.81915241 0.00000000
vn -0.70710701 0.70710659 0.00000000
vn -0.70710701 0.70710659 0.00000000
vn -0.70710701 0.70710659 0.00000000
vn -0.81915212 0.57357627 0.00000000
vn -0.81915212 0.57357627 0.00000000
vn -0.81915212 0.57357627 0.00000000
vn -0.90630752 0.42261881 0.00000000
vn -0.90630752 0.42261881 0.00000000
vn -0.90630752 0.42261881 0.00000000
vn -0.96592587 0.25881881 0.00000000
vn -0.96592587 0.25881881 0.00000000
vn -0.96592587 0.25881881 0.00000000
vn -0.99619472 0.08715581 0.00000000
vn -0.99619472 0.08715581 0.00000000
vn -0.99619472 0.08715581 0.00000000
vn -0.99619472 -0.08715581 0.00000000
vn -0.99619472 -0.08715581 0.00000000
vn -0.99619472 -0.08715581 0.00000000
vn -0.96592587 -0.25881869 0.00000000
vn -0.96592587 -0.25881869 0.00000000
vn -0.96592587 -0.25881869 0.00000000
vn -0.90630758 -0.42261869 0.00000000
vn -0.90630758 -0.42261869 0.00000000
vn -0.90630758 -0.42261869 0.00000000
vn -0.81915212 -0.57357627 0.00000000
vn -0.81915212 -0.57357627 0.00000000
vn -0.81915212 -0.57357627 0.00000000
vn -0.70710683 -0.70710683 0.00000000
vn -0.70710683 -0.70710683 0.00000000
vn -0.70710683 -0.70710683 0.00000000
vn -0.57357639 -0.81915212 0.00000000
vn -0.57357639 -0.81915212 0.00000000
vn -0.57357639 -0.81915212 0.00000000
vn -0.42261860 -0.90630758 0.00000000
vn -0.42261860 -0.90630758 0.00000000
vn -0.42261860 -0.90630758 0.00000000
vn -0.25881881 -0.96592587 0.00000000
vn -0.25881881 -0.96592587 0.00000000
vn -0.25881881 -0.96592587 0.00000000
vn -0.08715581 -0.99619472 0.00000000
vn -0.08715581 -0.99619472 0.00000000
vn -0.08715581 -0.99619472 0.00000000
vn 0.08715581 -0.99619472 0.00000000
vn 0.08715581 -0.99619472 0.00000000
vn 0.08715581 -0.99619472 0.00000000
vn 0.25881881 -0.96592587 0.00000000
vn 0.25881881 -0.96592587 0.00000000
vn 0.25881881 -0.96592587 0.00000000
vn 0.42261860 -0.90630758 0.00000000
vn 0.42261860 -0.90630758 0.00000000
vn 0.42261860 -0.90630758 0.00000000
vn 0.57357627 -0.81915212 0.00000000
vn 0.57357627 -0.81915212 0.00000000
vn 0.57357627 -0.81915212 0.00000000
vn 0.70710683 -0.70710683 0.00000000
vn 0.70710683 -0.70710683 0.00000000
vn 0.70710683 -0.70710683 0.00000000
vn 0.81915212 -0.57357639 0.00000000
vn 0.81915212 -0.57357639 0.00000000
vn 0.81915212 -0.57357639 0.00000000
vn 0.90630758 -0.42261869 0.00000000
vn 0.90630758 -0.42261869 0.00000000
vn 0.90630758 -0.42261869 0.00000000
vn 0.96592587 -0.25881869 0.00000000
vn 0.96592587 -0.25881869 0.00000000
vn 0.96592587 -0.25881869 0.00000000
vn 0.99619472 -0.08715581 0.00000000
vn 0.99619472 -0.08715581 0.00000000
vn 0.99619472 -0.08715581 0.00000000
vn 0.99619472 0.08715581 0.00000000
vn 0.99619472 0.08715581 0.00000000
vn 0.99619472 0.08715581 0.00000000
vn 0.96592587 0.25881881 0.00000000
vn 0.96592587 0.25881881 0.00000000
vn 0.96592587 0.25881881 0.00000000
vn 0.90630752 0.42261881 0.00000000
vn 0.90630752 0.42261881 0.00000000
vn 0.90630752 0.42261881 0.00000000
vn 0.81915212 0.57357627 0.00000000
vn 0.81915212 0.57357627 0.00000000
vn 0.81915212 0.57357627 0.00000000
vn 0.70710701 0.70710659 0.00000000
vn 0.70710701 0.70710659 0.00000000
vn 0.70710701 0.70710659 0.00000000
vn 0.57357597 0.81915241 0.00000000
vn 0.57357597 0.81915241 0.00000000
vn 0.57357597 0.81915241 0.00000000
vn 0.42261970 0.90630722 0.00000000
vn 0.42261970 0.90630722 0.00000000
vn 0.42261970 0.90630722 0.00000000
vn 0.08715522 0.99619472 0.00000000
vn 0.08715522 0.99619472 0.00000000
vn 0.08715522 0.99619472 0.00000000
vn 0.25881821 0.96592611 0.00000000
vn 0.25881821 0.96592611 0.00000000
vn 0.25881821 0.96592611 0.00000000
vn 0.00000000 0.00000000 -1.00000000
vn 0.00000000 0.00000000 -1.00000000
vn 0.00000000 0.00000000 -1.00000000
vn 0.00000000 0.00000000 -1.00000000
vn 0.00000000 0.00000000 -1.00000000
vn 0.00000000 0.00000000 -1.00000000
vn 0.00000000 0.00000000 -1.00000000
vn 0.00000000 0.00000000 -1.00000000
vn 0.00000000 0.00000000 -1.00000000
vn 0.00000000 0.00000000 -1.00000000
vn 0.00000000 0.00000000 -1.00000000
vn 0.00000000 0.00000000 -1.00000000
vn 0.00000000 0.00000000 -1.00000000
vn 0.00000000 0.00000000 -1.00000000
vn 0.00000000 0.00000000 -1.00000000
vn 0.00000000 0.00000000 -1.00000000
vn 0.00000000 0.00000000 -1.00000000
vn 0.00000000 0.00000000 -1.00000000
vn 0.00000000 0.00000000 -1.00000000
vn 0.00000000 0.00000000 -1.00000000
vn 0.00000000 0.00000000 -1.00000000
vn 0.00000000 0.00000000 -1.00000000
vn 0.00000000 0.00000000 -1.00000000
vn 0.00000000 0.00000000 -1.00000000
vn 0.00000000 0.00000000 -1.00000000
vn 0.00000000 0.00000000 -1.00000000
vn 0.00000000 0.00000000 -1.00000000
vn 0.00000000 0.00000000 -1.00000000
vn 0.00000000 0.00000000 -1.00000000
vn 0.00000000 0.00000000 -1.00000000
vn 0.00000000 0.00000000 -1.00000000
vn 0.00000000 0.00000000 -1.00000000
vn 0.00000000 0.00000000 -1.00000000
vn 0.00000000 0.00000000 -1.00000000
vn 0.00000000 0.00000000 -1.00000000
vn 0.00000000 0.00000000 -1.00000000
vn 0.00000000 0.00000000 -1.00000000
vn 0.00000000 0.00000000 -1.00000000
vn 0.00000000 0.00000000 -1.00000000
vn 0.00000000 0.00000000 -1.00000000
vn 0.00000000 0.00000000 -1.00000000
vn 0.00000000 0.00000000 -1.00000000
vn 0.00000000 0.00000000 -1.00000000
vn 0.00000000 0.00000000 -1.00000000
vn 0.00000000 0.00000000 -1.00000000
vn 0.00000000 0.00000000 -1.00000000
vn 0.00000000 0.00000000 -1.00000000
vn 0.00000000 0.00000000 -1.00000000
vn 0.00000000 0.00000000 -1.00000000
vn 0.00000012 0.00000000 -1.00000000
vn 0.00000012 0.00000000 -1.00000000
vn 0.00000000 0.00000000 -1.00000000
vn 0.00000000 0.00000000 -1.00000000
vn 0.00000000 0.00000000 -1.00000000
vn 0.00000000 0.00000000 -1.00000000
vn 0.00000000 0.00000000 -1.00000000
vn 0.00000000 0.00000000 -1.00000000
vn 0.00000000 0.00000000 -1.00000000
vn 0.00000000 0.00000000 -1.00000000
vn 0.00000000 0.00000000 -1.00000000
vn 0.00000000 0.00000000 -1.00000000
vn 0.00000000 0.00000000 -1.00000000
vn 0.00000000 0.00000000 1.00000000
vn 0.00000000 0.00000000 1.00000000
vn 0.00000000 0.00000000 1.00000000
vn 0.00000000 0.00000000 1.00000000
vn 0.00000000 0.00000000 1.00000000
vn 0.00000000 0.00000000 1.00000000
vn 0.00000000 0.00000000 1.00000000
vn 0.00000000 0.00000000 1.00000000
vn 0.00000000 0.00000000 1.00000000
vn 0.00000000 0.00000000 1.00000000
vn 0.00000000 0.00000000 1.00000000
vn 0.00000000 0.00000000 1.00000000
vn 0.00000000 0.00000000 1.00000000
vn 0.00000000 0.00000000 1.00000000
vn 0.00000000 0.00000000 1.00000000
vn 0.00000000 0.00000000 1.00000000
vn 0.00000000 0.00000000 1.00000000
vn 0.00000000 0.00000000 1.00000000
vn 0.00000000 0.00000000 1.00000000
vn 0.00000000 0.00000000 1.00000000
vn 0.00000000 0.00000000 1.00000000
vn 0.00000000 0.00000000 1.00000000
vn 0.00000000 0.00000000 1.00000000
vn 0.00000000 0.00000000 1.00000000
vn 0.00000000 0.00000000 1.00000000
vn 0.00000000 0.00000000 1.00000000
vn 0.00000000 0.00000000 1.00000000
vn 0.00000000 0.00000000 1.00000000
vn 0.00000000 0.00000000 1.00000000
vn 0.00000000 0.00000000 1.00000000
vn 0.00000000 0.00000000 1.00000000
vn 0.00000000 0.00000000 1.00000000
vn 0.00000000 0.00000000 1.00000000
vn 0.00000000 0.00000000 1.00000000
vn 0.00000000 0.00000000 1.00000000
vn 0.00000000 0.00000000 1.00000000
vn 0.00000000 0.00000000 1.00000000
vn 0.00000000 0.00000000 1.00000000
vn 0.00000000 0.00000000 1.00000000
vn 0.00000000 0.00000000 1.00000000
vn 0.00000000 0.00000000 1.00000000
vn 0.00000000 0.00000000 1.00000000
vn 0.00000000 0.00000000 1.00000000
vn 0.00000000 0.00000000 1.00000000
vn 0.00000000 0.00000000 1.00000000
vn 0.00000000 0.00000000 1.00000000
vn 0.00000000 0.00000000 1.00000000
vn 0.00000000 0.00000000 1.00000000
vn 0.00000000 0.00000000 1.00000000
vn 0.00000000 0.00000000 1.00000000
vn 0.00000000 0.00000000 1.00000000
vn 0.00000000 0.00000000 1.00000000
vn 0.00000000 0.00000000 1.00000000
vn 0.00000000 0.00000000 1.00000000
vn 0.00000000 0.00000000 1.00000000
vn 0.00000000 0.00000000 1.00000000
vn 0.00000000 0.00000000 1.00000000
vn 0.00000000 0.00000000 1.00000000
vn 0.00000000 0.00000000 1.00000000
vn 0.00000000 0.00000000 1.00000000
vn 0.00000000 0.00000000 1.00000000
vn 0.00000000 0.00000000 1.00000000
vn 0.00000000 0.00000000 1.00000000
vn 0.00000000 0.00000000 1.00000000
vn 0.00000000 0.00000000 1.00000000
vn 0.00000000 0.00000000 1.00000000
vn 0.00000000 0.00000000 1.00000000
vn 0.00000000 0.00000000 1.00000000
vn 0.00000000 0.00000000 1.00000000
vn 0.00000000 0.00000000 1.00000000
vn 0.00000000 0.00000000 1.00000000
vn 0.00000000 0.00000000 1.00000000
vn -0.08715540 -0.99619472 0.00000000
vn -0.08715540 -0.99619472 0.00000000
vn -0.08715540 -0.99619472 0.00000000
vn -0.25881770 -0.96592617 0.00000000
vn -0.25881770 -0.96592617 0.00000000
vn -0.25881770 -0.96592617 0.00000000
vn -0.42261979 -0.90630698 0.00000000
vn -0.42261979 -0.90630698 0.00000000
vn -0.42261979 -0.90630698 0.00000000
vn -0.57357723 -0.81915152 0.00000000
vn -0.57357723 -0.81915152 0.00000000
vn -0.57357723 -0.81915152 0.00000000
vn -0.70710498 -0.70710862 0.00000000
vn -0.70710498 -0.70710862 0.00000000
vn -0.70710498 -0.70710862 0.00000000
vn -0.81915230 -0.57357609 0.00000000
vn -0.81915230 -0.57357609 0.00000000
vn -0.81915230 -0.57357609 0.00000000
vn -0.90630919 -0.42261520 0.00000000
vn -0.90630919 -0.42261520 0.00000000
vn -0.90630919 -0.42261520 0.00000000
vn -0.96592498 -0.25882199 0.00000000
vn -0.96592498 -0.25882199 0.00000000
vn -0.96592498 -0.25882199 0.00000000
vn -0.99619478 -0.08715409 0.00000000
vn -0.99619478 -0.08715409 0.00000000
vn -0.99619478 -0.08715409 0.00000000
vn -0.99619478 0.08715409 0.00000000
vn -0.99619478 0.08715409 0.00000000
vn -0.99619478 0.08715409 0.00000000
vn -0.96592498 0.25882190 0.00000000
vn -0.96592498 0.25882190 0.00000000
vn -0.96592498 0.25882190 0.00000000
vn -0.90630913 0.42261541 0.00000000
vn -0.90630913 0.42261541 0.00000000
vn -0.90630913 0.42261541 0.00000000
vn -0.81915230 0.57357609 0.00000000
vn -0.81915230 0.57357609 0.00000000
vn -0.81915230 0.57357609 0.00000000
vn -0.70710510 0.70710838 0.00000000
vn -0.70710510 0.70710838 0.00000000
vn -0.70710510 0.70710838 0.00000000
vn -0.57357711 0.81915158 0.00000000
vn -0.57357711 0.81915158 0.00000000
vn -0.57357711 0.81915158 0.00000000
vn -0.42261949 0.90630722 0.00000000
vn -0.42261949 0.90630722 0.00000000
vn -0.42261949 0.90630722 0.00000000
vn -0.25881869 0.96592587 0.00000000
vn -0.25881869 0.96592587 0.00000000
vn -0.25881869 0.96592587 0.00000000
vn -0.08715575 0.99619472 0.00000000
vn -0.08715575 0.99619472 0.00000000
vn -0.08715575 0.99619472 0.00000000
vn 0.08715575 0.99619472 0.00000000
vn 0.08715575 0.99619472 0.00000000
vn 0.08715575 0.99619472 0.00000000
vn 0.25881839 0.96592599 0.00000000
vn 0.25881839 0.96592599 0.00000000
vn 0.25881839 0.96592599 0.00000000
vn 0.42261979 0.90630698 0.00000000
vn 0.42261979 0.90630698 0.00000000
vn 0.42261979 0.90630698 0.00000000
vn 0.57357711 0.81915158 0.00000000
vn 0.57357711 0.81915158 0.00000000
vn 0.57357711 0.81915158 0.00000000
vn 0.70710510 0.70710838 0.00000000
vn 0.70710510 0.70710838 0.00000000
vn 0.70710510 0.70710838 0.00000000
vn 0.81915230 0.57357609 0.00000000
vn 0.81915230 0.57357609 0.00000000
vn 0.81915230 0.57357609 0.00000000
vn 0.90630913 0.42261541 0.00000000
vn 0.90630913 0.42261541 0.00000000
vn 0.90630913 0.42261541 0.00000000
vn 0.96592498 0.25882190 0.00000000
vn 0.96592498 0.25882190 0.00000000
vn 0.96592498 0.25882190 0.00000000
vn 0.99619478 0.08715409 0.00000000
vn 0.99619478 0.08715409 0.00000000
vn 0.99619478 0.08715409 0.00000000
vn 0.99619478 -0.08715409 0.00000000
vn 0.99619478 -0.08715409 0.00000000
vn 0.99619478 -0.08715409 0.00000000
vn 0.96592498 -0.25882199 0.00000000
vn 0.96592498 -0.25882199 0.00000000
vn 0.96592498 -0.25882199 0.00000000
vn 0.90630919 -0.42261520 0.00000000
vn 0.90630919 -0.42261520 0.00000000
vn 0.90630919 -0.42261520 0.00000000
vn 0.81915230 -0.57357609 0.00000000
vn 0.81915230 -0.57357609 0.00000000
vn 0.81915230 -0.57357609 0.00000000
vn 0.70710498 -0.70710862 0.00000000
vn 0.70710498 -0.70710862 0.00000000
vn 0.70710498 -0.70710862 0.00000000
vn 0.57357723 -0.81915152 0.00000000
vn 0.57357723 -0.81915152 0.00000000
vn 0.57357723 -0.81915152 0.00000000
vn 0.42261979 -0.90630698 0.00000000
vn 0.42261979 -0.90630698 0.00000000
vn 0.42261979 -0.90630698 0.00000000
vn 0.08715540 -0.99619472 0.00000000
vn 0.08715540 -0.99619472 0.00000000
vn 0.08715540 -0.99619472 0.00000000
vn 0.25881770 -0.96592617 0.00000000
vn 0.25881770 -0.96592617 0.00000000
vn 0.25881770 -0.96592617 0.00000000
vn 0.08715534 0.99619472 0.00000000
vn 0.08715534 0.99619472 0.00000000
vn 0.08715534 0.99619472 0.00000000
vn 0.25881800 0.96592611 0.00000000
vn 0.25881800 0.96592611 0.00000000
vn 0.25881800 0.96592611 0.00000000
vn 0.42261839 0.90630770 0.00000000
vn 0.42261839 0.90630770 0.00000000
vn 0.42261839 0.90630770 0.00000000
vn 0.57357711 0.81915158 0.00000000
vn 0.57357711 0.81915158 0.00000000
vn 0.57357711 0.81915158 0.00000000
vn 0.70710552 0.70710802 0.00000000
vn 0.70710552 0.70710802 0.00000000
vn 0.70710552 0.70710802 0.00000000
vn 0.81915241 0.57357597 0.00000000
vn 0.81915241 0.57357597 0.00000000
vn 0.81915241 0.57357597 0.00000000
vn 0.90630788 0.42261779 0.00000000
vn 0.90630788 0.42261779 0.00000000
vn 0.90630788 0.42261779 0.00000000
vn 0.96592641 0.25881711 0.00000000
vn 0.96592641 0.25881711 0.00000000
vn 0.96592641 0.25881711 0.00000000
vn 0.99619472 0.08715641 0.00000000
vn 0.99619472 0.08715641 0.00000000
vn 0.99619472 0.08715641 0.00000000
vn 0.99619472 -0.08715641 0.00000000
vn 0.99619472 -0.08715641 0.00000000
vn 0.99619472 -0.08715641 0.00000000
vn 0.96592641 -0.25881699 0.00000000
vn 0.96592641 -0.25881699 0.00000000
vn 0.96592641 -0.25881699 0.00000000
vn 0.90630800 -0.42261770 0.00000000
vn 0.90630800 -0.42261770 0.00000000
vn 0.90630800 -0.42261770 0.00000000
vn 0.81915241 -0.57357591 0.00000000
vn 0.81915241 -0.57357591 0.00000000
vn 0.81915241 -0.57357591 0.00000000
vn 0.70710540 -0.70710820 0.00000000
vn 0.70710540 -0.70710820 0.00000000
vn 0.70710540 -0.70710820 0.00000000
vn 0.57357752 -0.81915128 0.00000000
vn 0.57357752 -0.81915128 0.00000000
vn 0.57357752 -0.81915128 0.00000000
vn 0.42261741 -0.90630817 0.00000000
vn 0.42261741 -0.90630817 0.00000000
vn 0.42261741 -0.90630817 0.00000000
vn 0.25881860 -0.96592587 0.00000000
vn 0.25881860 -0.96592587 0.00000000
vn 0.25881860 -0.96592587 0.00000000
vn 0.08715593 -0.99619472 0.00000000
vn 0.08715593 -0.99619472 0.00000000
vn 0.08715593 -0.99619472 0.00000000
vn -0.08715593 -0.99619472 0.00000000
vn -0.08715593 -0.99619472 0.00000000
vn -0.08715593 -0.99619472 0.00000000
vn -0.25881860 -0.96592587 0.00000000
vn -0.25881860 -0.96592587 0.00000000
vn -0.25881860 -0.96592587 0.00000000
vn -0.42261741 -0.90630817 0.00000000
vn -0.42261741 -0.90630817 0.00000000
vn -0.42261741 -0.90630817 0.00000000
vn -0.57357752 -0.81915122 0.00000000
vn -0.57357752 -0.81915122 0.00000000
vn -0.57357752 -0.81915122 0.00000000
vn -0.70710540 -0.70710820 0.00000000
vn -0.70710540 -0.70710820 0.00000000
vn -0.70710540 -0.70710820 0.00000000
vn -0.81915247 -0.57357579 0.00000000
vn -0.81915247 -0.57357579 0.00000000
vn -0.81915247 -0.57357579 0.00000000
vn -0.90630800 -0.42261770 0.00000000
vn -0.90630800 -0.42261770 0.00000000
vn -0.90630800 -0.42261770 0.00000000
vn -0.96592641 -0.25881699 0.00000000
vn -0.96592641 -0.25881699 0.00000000
vn -0.96592641 -0.25881699 0.00000000
vn -0.99619472 -0.08715641 0.00000000
vn -0.99619472 -0.08715641 0.00000000
vn -0.99619472 -0.08715641 0.00000000
vn -0.99619472 0.08715641 0.00000000
vn -0.99619472 0.08715641 0.00000000
vn -0.99619472 0.08715641 0.00000000
vn -0.96592641 0.25881699 0.00000000
vn -0.96592641 0.25881699 0.00000000
vn -0.96592641 0.25881699 0.00000000
vn -0.90630800 0.42261779 0.00000000
vn -0.90630800 0.42261779 0.00000000
vn -0.90630800 0.42261779 0.00000000
vn -0.81915241 0.57357597 0.00000000
vn -0.81915241 0.57357597 0.00000000
vn -0.81915241 0.57357597 0.00000000
vn -0.70710552 0.70710802 0.00000000
vn -0.70710552 0.70710802 0.00000000
vn -0.70710552 0.70710802 0.00000000
vn -0.57357711 0.81915158 0.00000000
vn -0.57357711 0.81915158 0.00000000
vn -0.57357711 0.81915158 0.00000000
vn -0.42261839 0.90630770 0.00000000
vn -0.42261839 0.90630770 0.00000000
vn -0.42261839 0.90630770 0.00000000
vn -0.08715534 0.99619472 0.00000000
vn -0.08715534 0.99619472 0.00000000
vn -0.08715534 0.99619472 0.00000000
vn -0.25881800 0.96592611 0.00000000
vn -0.25881800 0.96592611 0.00000000
vn -0.25881800 0.96592611 0.00000000
vn 0.00000000 0.00000000 1.00000000
vn 0.00000000 0.00000000 1.00000000
vn 0.00000000 0.00000000 1.00000000
vn 0.00000000 0.00000000 1.00000000
vn 0.00000000 0.00000000 1.00000000
vn 0.00000000 0.00000000 1.00000000
vn 0.00000000 0.00000000 1.00000000
vn 0.00000000 0.00000000 1.00000000
vn 0.00000000 0.00000000 1.00000000
vn 0.00000000 0.00000000 1.00000000
vn 0.00000000 0.00000000 1.00000000
vn 0.00000000 0.00000000 1.00000000
vn 0.00000000 0.00000000 1.00000000
vn 0.08715552 -0.99619472 0.00000000
vn 0.25881800 -0.96592617 0.00000000
vn 0.42261881 -0.90630752 0.00000000
vn 0.57357663 -0.81915188 0.00000000
vn 0.70710683 -0.70710683 0.00000000
vn 0.81915212 -0.57357639 0.00000000
vn 0.90630770 -0.42261851 0.00000000
vn 0.96592581 -0.25881910 0.00000000
vn 0.99619472 -0.08715587 0.00000000
vn 0.99619472 0.08715587 0.00000000
vn 0.96592587 0.25881860 0.00000000
vn 0.90630752 0.42261890 0.00000000
vn 0.81915212 0.57357639 0.00000000
vn 0.70710683 0.70710683 0.00000000
vn 0.57357639 0.81915212 0.00000000
vn 0.42261851 0.90630770 0.00000000
vn 0.25881889 0.96592587 0.00000000
vn 0.08715587 0.99619472 0.00000000
vn -0.08715587 0.99619472 0.00000000
vn -0.25881860 0.96592587 0.00000000
vn -0.42261881 0.90630752 0.00000000
vn -0.57357651 0.81915200 0.00000000
vn -0.70710683 0.70710683 0.00000000
vn -0.81915212 0.57357627 0.00000000
vn -0.90630758 0.42261860 0.00000000
vn -0.96592581 0.25881889 0.00000000
vn -0.99619472 0.08715587 0.00000000
vn -0.99619472 -0.08715587 0.00000000
vn -0.96592587 -0.25881869 0.00000000
vn -0.90630752 -0.42261881 0.00000000
vn -0.81915212 -0.57357639 0.00000000
vn -0.70710683 -0.70710683 0.00000000
vn -0.57357663 -0.81915188 0.00000000
vn -0.42261881 -0.90630752 0.00000000
vn -0.08715552 -0.99619472 0.00000000
vn -0.25881800 -0.96592617 0.00000000
vn -0.08715522 0.99619472 0.00000000
vn -0.25881821 0.96592611 0.00000000
vn -0.42261970 0.90630722 0.00000000
vn -0.57357597 0.81915241 0.00000000
vn -0.70710701 0.70710659 0.00000000
vn -0.81915212 0.57357627 0.00000000
vn -0.90630752 0.42261881 0.00000000
vn -0.96592587 0.25881881 0.00000000
vn -0.99619472 0.08715581 0.00000000
vn -0.99619472 -0.08715581 0.00000000
vn -0.96592587 -0.25881869 0.00000000
vn -0.90630758 -0.42261869 0.00000000
vn -0.81915212 -0.57357639 0.00000000
vn -0.70710683 -0.70710683 0.00000000
vn -0.57357627 -0.81915212 0.00000000
vn -0.42261860 -0.90630758 0.00000000
vn -0.25881881 -0.96592587 0.00000000
vn -0.08715581 -0.99619472 0.00000000
vn 0.08715581 -0.99619472 0.00000000
vn 0.25881881 -0.96592587 0.00000000
vn 0.42261860 -0.90630758 0.00000000
vn 0.57357639 -0.81915212 0.00000000
vn 0.70710683 -0.70710683 0.00000000
vn 0.81915212 -0.57357627 0.00000000
vn 0.90630758 -0.42261869 0.00000000
vn 0.96592587 -0.25881869 0.00000000
vn 0.99619472 -0.08715581 0.00000000
vn 0.99619472 0.08715581 0.00000000
vn 0.96592587 0.25881881 0.00000000
vn 0.90630752 0.42261881 0.00000000
vn 0.81915212 0.57357627 0.00000000
vn 0.70710701 0.70710659 0.00000000
vn 0.57357597 0.81915241 0.00000000
vn 0.42261970 0.90630722 0.00000000
vn 0.08715522 0.99619472 0.00000000
vn 0.25881821 0.96592611 0.00000000
vn 0.00000000 0.00000000 -1.00000000
vn 0.00000000 0.00000000 -1.00000000
vn 0.00000000 0.00000000 -1.00000000
vn 0.00000000 0.00000000 -1.00000000
vn 0.00000000 0.00000000 -1.00000000
vn 0.00000000 0.00000000 -1.00000000
vn 0.00000000 0.00000000 -1.00000000
vn 0.00000000 0.00000000 -1.00000000
vn 0.00000000 0.00000000 -1.00000000
vn 0.00000000 0.00000000 -1.00000000
vn -0.08715540 -0.99619472 0.00000000
vn -0.25881770 -0.96592617 0.00000000
vn -0.42261979 -0.90630698 0.00000000
vn -0.57357723 -0.81915152 0.00000000
vn -0.70710498 -0.70710862 0.00000000
vn -0.81915230 -0.57357609 0.00000000
vn -0.90630919 -0.42261520 0.00000000
vn -0.96592498 -0.25882199 0.00000000
vn -0.99619478 -0.08715409 0.00000000
vn -0.99619478 0.08715409 0.00000000
vn -0.96592498 0.25882190 0.00000000
vn -0.90630913 0.42261541 0.00000000
vn -0.81915230 0.57357609 0.00000000
vn -0.70710510 0.70710838 0.00000000
vn -0.57357699 0.81915158 0.00000000
vn -0.42261949 0.90630722 0.00000000
vn -0.25881869 0.96592587 0.00000000
vn -0.08715575 0.99619472 0.00000000
vn 0.08715575 0.99619472 0.00000000
vn 0.25881839 0.96592599 0.00000000
vn 0.42261979 0.90630698 0.00000000
vn 0.57357699 0.81915158 0.00000000
vn 0.70710510 0.70710838 0.00000000
vn 0.81915230 0.57357621 0.00000000
vn 0.90630913 0.42261541 0.00000000
vn 0.96592498 0.25882190 0.00000000
vn 0.99619478 0.08715409 0.00000000
vn 0.99619478 -0.08715409 0.00000000
vn 0.96592498 -0.25882199 0.00000000
vn 0.90630919 -0.42261520 0.00000000
vn 0.81915230 -0.57357609 0.00000000
vn 0.70710498 -0.70710862 0.00000000
vn 0.57357723 -0.81915152 0.00000000
vn 0.42261979 -0.90630698 0.00000000
vn 0.08715540 -0.99619472 0.00000000
vn 0.25881770 -0.96592617 0.00000000
vn 0.08715534 0.99619472 0.00000000
vn 0.25881800 0.96592611 0.00000000
vn 0.42261839 0.90630770 0.00000000
vn 0.57357711 0.81915158 0.00000000
vn 0.70710552 0.70710802 0.00000000
vn 0.81915241 0.57357597 0.00000000
vn 0.90630788 0.42261779 0.00000000
vn 0.96592641 0.25881711 0.00000000
vn 0.99619472 0.08715641 0.00000000
vn 0.99619472 -0.08715641 0.00000000
vn 0.96592641 -0.25881699 0.00000000
vn 0.90630800 -0.42261770 0.00000000
vn 0.81915241 -0.57357591 0.00000000
vn 0.70710540 -0.70710820 0.00000000
vn 0.57357752 -0.81915122 0.00000000
vn 0.42261741 -0.90630817 0.00000000
vn 0.25881860 -0.96592587 0.00000000
vn 0.08715593 -0.99619472 0.00000000
vn -0.08715593 -0.99619472 0.00000000
vn -0.25881860 -0.96592587 0.00000000
vn -0.42261741 -0.90630817 0.00000000
vn -0.57357752 -0.81915128 0.00000000
vn -0.70710540 -0.70710820 0.00000000
vn -0.81915241 -0.57357591 0.00000000
vn -0.90630800 -0.42261770 0.00000000
vn -0.96592641 -0.25881699 0.00000000
vn -0.99619472 -0.08715641 0.00000000
vn -0.99619472 0.08715641 0.00000000
vn -0.96592641 0.25881699 0.00000000
vn -0.90630788 0.42261779 0.00000000
vn -0.81915241 0.57357597 0.00000000
vn -0.70710552 0.70710802 0.00000000
vn -0.57357711 0.81915158 0.00000000
vn -0.42261839 0.90630770 0.00000000
vn -0.08715534 0.99619472 0.00000000
vn -0.25881800 0.96592611 0.00000000
f 1//1 2//2 3//3
f 4//4 5//5 1//1
f 4//4 6//6 7//7
f 8//8 6//6 9//9
f 10//10 11//11 8//8
f 12//12 13//13 10//10
f 14//14 15//15 12//12
f 14//14 16//16 17//17
f 18//18 16//16 19//19
f 18//18 20//20 21//21
f 22//22 20//20 23//23
f 22//22 24//24 25//25
f 26//26 24//24 27//27
f 28//28 29//29 26//26
f 28//28 30//30 31//31
f 32//32 30//30 33//33
f 32//32 34//34 35//35
f 36//36 34//34 37//37
f 36//36 38//38 39//39
f 40//40 38//38 41//41
f 40//40 42//42 43//43
f 44//44 42//42 45//45
f 46//46 47//47 44//44
f 46//46 48//48 49//49
f 50//50 48//48 51//51
f 50//50 52//52 53//53
f 54//54 52//52 55//55
f 54//54 56//56 57//57
f 58//58 56//56 59//59
f 58//58 60//60 61//61
f 62//62 63//63 60//60
f 64//64 65//65 63//63
f 66//66 67//67 65//65
f 68//68 67//67 69//69
f 70//70 2//2 71//71
f 68//68 71//71 72//72
f 73//73 74//74 75//75
f 76//76 77//77 74//74
f 77//77 78//78 79//79
f 78//78 80//80 79//79
f 81//81 82//82 80//80
f 83//83 84//84 82//82
f 85//85 86//86 84//84
f 86//86 87//87 88//88
f 87//87 89//89 88//88
f 89//89 90//90 91//91
f 90//90 92//92 91//91
f 92//92 93//93 94//94
f 93//93 95//95 94//94
f 96//96 97//97 95//95
f 97//97 98//98 99//99
f 98//98 100//100 99//99
f 100//100 101//101 102//102
f 101//101 103//103 102//102
f 103//103 104//104 105//105
f 104//104 106//106 105//105
f 106//106 107//107 108//108
f 107//107 109//109 108//108
f 110//110 111//111 109//109
f 111//111 112//112 113//113
f 112//112 114//114 113//113
f 114//114 115//115 116//116
f 115//115 117//117 116//116
f 117//117 118//118 119//119
f 118//118 120//120 119//119
f 120//120 121//121 122//122
f 122//122 123//123 124//124
f 124//124 125//125 126//126
f 126//126 127//127 128//128
f 127//127 129//129 128//128
f 130//130 73//73 75//75
f 129//129 131//131 130//130
f 132//132 133//133 134//134
f 135//135 136//136 137//137
f 138//138 139//139 140//140
f 141//141 142//142 143//143
f 144//144 145//145 146//146
f 147//147 148//148 149//149
f 150//150 151//151 152//152
f 153//153 154//154 155//155
f 156//156 157//157 158//158
f 159//159 160//160 161//161
f 162//162 163//163 164//164
f 165//165 166//166 167//167
f 168//168 169//169 170//170
f 171//171 172//172 173//173
f 174//174 175//175 176//176
f 177//177 178//178 179//179
f 180//180 181//181 182//182
f 183//183 184//184 185//185
f 186//186 187//187 188//188
f 189//189 190//190 191//191
f 192//192 193//193 194//194
f 195//195 196//196 197//197
f 198//198 199//199 200//200
f 201//201 202//202 203//203
f 204//204 205//205 206//206
f 207//207 208//208 209//209
f 210//210 211//211 212//212
f 213//213 214//214 215//215
f 216//216 217//217 218//218
f 219//219 220//220 221//221
f 222//222 223//223 224//224
f 225//225 226//226 227//227
f 228//228 229//229 230//230
f 231//231 232//232 233//233
f 234//234 235//235 236//236
f 237//237 238//238 239//239
f 240//240 241//241 242//242
f 243//243 244//244 245//245
f 246//246 247//247 248//248
f 249//249 250//250 251//251
f 252//252 253//253 254//254
f 255//255 256//256 257//257
f 258//258 259//259 260//260
f 261//261 262//262 263//263
f 264//264 265//265 266//266
f 267//267 268//268 269//269
f 270//270 271//271 272//272
f 273//273 274//274 275//275
f 276//276 277//277 278//278
f 279//279 280//280 281//281
f 282//282 283//283 284//284
f 285//285 286//286 287//287
f 288//288 289//289 290//290
f 291//291 292//292 293//293
f 294//294 295//295 296//296
f 297//297 298//298 299//299
f 300//300 301//301 302//302
f 303//303 304//304 305//305
f 306//306 307//307 308//308
f 309//309 310//310 311//311
f 312//312 313//313 314//314
f 315//315 316//316 317//317
f 318//318 319//319 320//320
f 321//321 322//322 323//323
f 324//324 325//325 326//326
f 327//327 328//328 329//329
f 330//330 331//331 332//332
f 333//333 334//334 335//335
f 336//336 337//337 338//338
f 339//339 340//340 341//341
f 342//342 343//343 344//344
f 345//345 346//346 347//347
f 348//348 349//349 350//350
f 350//350 351//351 352//352
f 352//352 353//353 354//354
f 353//353 355//355 354//354
f 356//356 357//357 355//355
f 357//357 358//358 359//359
f 359//359 360//360 361//361
f 360//360 362//362 361//361
f 362//362 363//363 364//364
f 363//363 365//365 364//364
f 365//365 366//366 367//367
f 366//366 368//368 367//367
f 369//369 370//370 368//368
f 370//370 371//371 372//372
f 372//372 373//373 374//374
f 373//373 375//375 374//374
f 376//376 377//377 375//375
f 378//378 379//379 377//377
f 379//379 380//380 381//381
f 381//381 382//382 383//383
f 383//383 384//384 385//385
f 384//384 386//386 385//385
f 387//387 388//388 386//386
f 388//388 389//389 390//390
f 390//390 391//391 392//392
f 391//391 393//393 392//392
f 393//393 394//394 395//395
f 394//394 396//396 395//395
f 396//396 397//397 398//398
f 397//397 399//399 398//398
f 400//400 401//401 399//399
f 401//401 402//402 403//403
f 403//403 404//404 405//405
f 404//404 406//406 405//405
f 407//407 348//348 408//408
f 409//409 408//408 406//406
f 410//410 411//411 412//412
f 413//413 414//414 411//411
f 415//415 416//416 414//414
f 417//417 416//416 418//418
f 419//419 420//420 417//417
f 419//419 421//421 422//422
f 423//423 424//424 421//421
f 425//425 424//424 426//426
f 425//425 427//427 428//428
f 429//429 427//427 430//430
f 429//429 431//431 432//432
f 433//433 431//431 434//434
f 435//435 436//436 433//433
f 435//435 437//437 438//438
f 439//439 440//440 437//437
f 441//441 440//440 442//442
f 443//443 444//444 441//441
f 445//445 446//446 443//443
f 445//445 447//447 448//448
f 449//449 450//450 447//447
f 451//451 452//452 450//450
f 453//453 452//452 454//454
f 455//455 456//456 453//453
f 455//455 457//457 458//458
f 459//459 460//460 457//457
f 461//461 460//460 462//462
f 461//461 463//463 464//464
f 465//465 463//463 466//466
f 465//465 467//467 468//468
f 469//469 467//467 470//470
f 471//471 472//472 469//469
f 471//471 473//473 474//474
f 475//475 476//476 473//473
f 477//477 476//476 478//478
f 410//410 479//479 480//480
f 480//480 481//481 477//477
f 482//482 483//483 484//484
f 485//485 486//486 487//487
f 488//488 489//489 490//490
f 491//491 492//492 493//493
f 494//494 495//495 496//496
f 497//497 498//498 499//499
f 500//500 501//501 502//502
f 503//503 504//504 505//505
f 506//506 507//507 508//508
f 509//509 510//510 511//511
f 512//512 513//513 514//514
f 515//515 516//516 517//517
f 518//518 519//519 520//520
f 521//521 522//522 523//523
f 524//524 525//525 526//526
f 527//527 528//528 529//529
f 530//530 531//531 532//532
f 533//533 534//534 535//535
f 536//536 537//537 538//538
f 539//539 540//540 541//541
f 542//542 543//543 544//544
f 545//545 546//546 547//547
f 548//548 549//549 550//550
f 551//551 552//552 553//553
f 554//554 555//555 556//556
f 557//557 558//558 559//559
f 560//560 561//561 562//562
f 563//563 564//564 565//565
f 566//566 567//567 568//568
f 569//569 570//570 571//571
f 572//572 573//573 574//574
f 575//575 576//576 577//577
f 578//578 579//579 580//580
f 581//581 582//582 583//583
f 584//584 585//585 586//586
f 587//587 588//588 589//589
f 590//590 591//591 592//592
f 593//593 594//594 595//595
f 596//596 597//597 598//598
f 599//599 600//600 601//601
f 602//602 603//603 604//604
f 605//605 606//606 607//607
f 608//608 609//609 610//610
f 611//611 612//612 613//613
f 614//614 615//615 616//616
f 617//617 618//618 619//619
f 620//620 621//621 622//622
f 623//623 624//624 625//625
f 626//626 627//627 628//628
f 629//629 630//630 631//631
f 632//632 633//633 634//634
f 635//635 636//636 637//637
f 638//638 639//639 640//640
f 641//641 642//642 643//643
f 644//644 645//645 646//646
f 647//647 648//648 649//649
f 650//650 651//651 652//652
f 653//653 654//654 655//655
f 656//656 657//657 658//658
f 659//659 660//660 661//661
f 662//662 663//663 664//664
f 665//665 666//666 667//667
f 668//668 669//669 670//670
f 671//671 672//672 673//673
f 674//674 675//675 676//676
f 677//677 678//678 679//679
f 680//680 681//681 682//682
f 683//683 684//684 685//685
f 686//686 687//687 688//688
f 689//689 690//690 691//691
f 692//692 693//693 694//694
f 695//695 696//696 697//697
f 1//1 5//5 2//2
f 4//4 7//7 5//5
f 4//4 9//9 6//6
f 8//8 11//11 6//6
f 10//10 13//13 11//11
f 12//12 15//15 13//13
f 14//14 17//17 15//15
f 14//14 19//19 16//16
f 18//18 21//21 16//16
f 18//18 23//23 20//20
f 22//22 25//25 20//20
f 22//22 27//27 24//24
f 26//26 29//29 24//24
f 28//28 31//31 29//29
f 28//28 33//33 30//30
f 32//32 35//35 30//30
f 32//32 37//37 34//34
f 36//36 39//39 34//34
f 36//36 41//41 38//38
f 40//40 43//43 38//38
f 40//40 45//45 42//42
f 44//44 47//47 42//42
f 46//46 49//49 47//47
f 46//46 51//51 48//48
f 50//50 53//53 48//48
f 50//50 55//55 52//52
f 54//54 57//57 52//52
f 54//54 59//59 56//56
f 58//58 61//61 56//56
f 58//58 62//62 60//60
f 62//62 64//64 63//63
f 64//64 66//66 65//65
f 66//66 69//69 67//67
f 68//68 72//72 67//67
f 70//70 3//3 2//2
f 68//68 70//70 71//71
f 73//73 76//76 74//74
f 76//76 698//698 77//77
f 77//77 698//698 78//78
f 78//78 81//81 80//80
f 81//81 83//83 82//82
f 83//83 85//85 84//84
f 85//85 699//699 86//86
f 86//86 699//699 87//87
f 87//87 700//700 89//89
f 89//89 700//700 90//90
f 90//90 701//701 92//92
f 92//92 701//701 93//93
f 93//93 96//96 95//95
f 96//96 702//702 97//97
f 97//97 702//702 98//98
f 98//98 703//703 100//100
f 100//100 703//703 101//101
f 101//101 704//704 103//103
f 103//103 704//704 104//104
f 104//104 705//705 106//106
f 106//106 705//705 107//107
f 107//107 110//110 109//109
f 110//110 706//706 111//111
f 111//111 706//706 112//112
f 112//112 707//707 114//114
f 114//114 707//707 115//115
f 115//115 708//708 117//117
f 117//117 708//708 118//118
f 118//118 709//709 120//120
f 120//120 709//709 121//121
f 122//122 121//121 123//123
f 124//124 123//123 125//125
f 126//126 125//125 127//127
f 127//127 710//710 129//129
f 130//130 131//131 73//73
f 129//129 710//710 131//131
f 132//132 711//711 133//133
f 135//135 712//712 136//136
f 138//138 713//713 139//139
f 141//141 714//714 142//142
f 144//144 715//715 145//145
f 147//147 716//716 148//148
f 150//150 717//717 151//151
f 153//153 718//718 154//154
f 156//156 719//719 157//157
f 159//159 720//720 160//160
f 162//162 721//721 163//163
f 165//165 722//722 166//166
f 168//168 723//723 169//169
f 171//171 724//724 172//172
f 174//174 725//725 175//175
f 177//177 726//726 178//178
f 180//180 727//727 181//181
f 183//183 728//728 184//184
f 186//186 729//729 187//187
f 189//189 730//730 190//190
f 192//192 731//731 193//193
f 195//195 732//732 196//196
f 198//198 733//733 199//199
f 201//201 734//734 202//202
f 204//204 735//735 205//205
f 207//207 736//736 208//208
f 210//210 737//737 211//211
f 213//213 738//738 214//214
f 216//216 739//739 217//217
f 219//219 740//740 220//220
f 222//222 741//741 223//223
f 225//225 742//742 226//226
f 228//228 743//743 229//229
f 231//231 744//744 232//232
f 234//234 745//745 235//235
f 237//237 746//746 238//238
f 240//240 747//747 241//241
f 243//243 748//748 244//244
f 246//246 749//749 247//247
f 249//249 750//750 250//250
f 252//252 751//751 253//253
f 255//255 752//752 256//256
f 258//258 753//753 259//259
f 261//261 754//754 262//262
f 264//264 755//755 265//265
f 267//267 756//756 268//268
f 270//270 757//757 271//271
f 273//273 758//758 274//274
f 276//276 759//759 277//277
f 279//279 760//760 280//280
f 282//282 761//761 283//283
f 285//285 762//762 286//286
f 288//288 763//763 289//289
f 291//291 764//764 292//292
f 294//294 765//765 295//295
f 297//297 766//766 298//298
f 300//300 767//767 301//301
f 303//303 768//768 304//304
f 306//306 769//769 307//307
f 309//309 770//770 310//310
f 312//312 771//771 313//313
f 315//315 772//772 316//316
f 318//318 773//773 319//319
f 321//321 774//774 322//322
f 324//324 775//775 325//325
f 327//327 776//776 328//328
f 330//330 777//777 331//331
f 333//333 778//778 334//334
f 336//336 779//779 337//337
f 339//339 780//780 340//340
f 342//342 781//781 343//343
f 345//345 782//782 346//346
f 348//348 783//783 349//349
f 350//350 349//349 351//351
f 352//352 351//351 353//353
f 353//353 356//356 355//355
f 356//356 784//784 357//357
f 357//357 784//784 358//358
f 359//359 358//358 360//360
f 360//360 785//785 362//362
f 362//362 785//785 363//363
f 363//363 786//786 365//365
f 365//365 786//786 366//366
f 366//366 369//369 368//368
f 369//369 787//787 370//370
f 370//370 787//787 371//371
f 372//372 371//371 373//373
f 373//373 376//376 375//375
f 376//376 378//378 377//377
f 378//378 788//788 379//379
f 379//379 788//788 380//380
f 381//381 380//380 382//382
f 383//383 382//382 384//384
f 384//384 387//387 386//386
f 387//387 789//789 388//388
f 388//388 789//789 389//389
f 390//390 389//389 391//391
f 391//391 790//790 393//393
f 393//393 790//790 394//394
f 394//394 791//791 396//396
f 396//396 791//791 397//397
f 397//397 400//400 399//399
f 400//400 792//792 401//401
f 401//401 792//792 402//402
f 403//403 402//402 404//404
f 404//404 409//409 406//406
f 407//407 783//783 348//348
f 409//409 407//407 408//408
f 410//410 413//413 411//411
f 413//413 415//415 414//414
f 415//415 418//418 416//416
f 417//417 420//420 416//416
f 419//419 422//422 420//420
f 419//419 423//423 421//421
f 423//423 426//426 424//424
f 425//425 428//428 424//424
f 425//425 430//430 427//427
f 429//429 432//432 427//427
f 429//429 434//434 431//431
f 433//433 436//436 431//431
f 435//435 438//438 436//436
f 435//435 439//439 437//437
f 439//439 442//442 440//440
f 441//441 444//444 440//440
f 443//443 446//446 444//444
f 445//445 448//448 446//446
f 445//445 449//449 447//447
f 449//449 451//451 450//450
f 451//451 454//454 452//452
f 453//453 456//456 452//452
f 455//455 458//458 456//456
f 455//455 459//459 457//457
f 459//459 462//462 460//460
f 461//461 464//464 460//460
f 461//461 466//466 463//463
f 465//465 468//468 463//463
f 465//465 470//470 467//467
f 469//469 472//472 467//467
f 471//471 474//474 472//472
f 471//471 475//475 473//473
f 475//475 478//478 476//476
f 477//477 481//481 476//476
f 410//410 412//412 479//479
f 480//480 479//479 481//481
f 482//482 793//793 483//483
f 485//485 794//794 486//486
f 488//488 795//795 489//489
f 491//491 796//796 492//492
f 494//494 797//797 495//495
f 497//497 798//798 498//498
f 500//500 799//799 501//501
f 503//503 800//800 504//504
f 506//506 801//801 507//507
f 509//509 802//802 510//510
f 512//512 803//803 513//513
f 515//515 804//804 516//516
f 518//518 805//805 519//519
f 521//521 806//806 522//522
f 524//524 807//807 525//525
f 527//527 808//808 528//528
f 530//530 809//809 531//531
f 533//533 810//810 534//534
f 536//536 811//811 537//537
f 539//539 812//812 540//540
f 542//542 813//813 543//543
f 545//545 814//814 546//546
f 548//548 815//815 549//549
f 551//551 816//816 552//552
f 554//554 817//817 555//555
f 557//557 818//818 558//558
f 560//560 819//819 561//561
f 563//563 820//820 564//564
f 566//566 821//821 567//567
f 569//569 822//822 570//570
f 572//572 823//823 573//573
f 575//575 824//824 576//576
f 578//578 825//825 579//579
f 581//581 826//826 582//582
f 584//584 827//827 585//585
f 587//587 828//828 588//588
f 590//590 829//829 591//591
f 593//593 830//830 594//594
f 596//596 831//831 597//597
f 599//599 832//832 600//600
f 602//602 833//833 603//603
f 605//605 834//834 606//606
f 608//608 835//835 609//609
f 611//611 836//836 612//612
f 614//614 837//837 615//615
f 617//617 838//838 618//618
f 620//620 839//839 621//621
f 623//623 840//840 624//624
f 626//626 841//841 627//627
f 629//629 842//842 630//630
f 632//632 843//843 633//633
f 635//635 844//844 636//636
f 638//638 845//845 639//639
f 641//641 846//846 642//642
f 644//644 847//847 645//645
f 647//647 848//848 648//648
f 650//650 849//849 651//651
f 653//653 850//850 654//654
f 656//656 851//851 657//657
f 659//659 852//852 660//660
f 662//662 853//853 663//663
f 665//665 854//854 666//666
f 668//668 855//855 669//669
f 671//671 856//856 672//672
f 674//674 857//857 675//675
f 677//677 858//858 678//678
f 680//680 859//859 681//681
f 683//683 860//860 684//684
f 686//686 861//861 687//687
f 689//689 862//862 690//690
f 692//692 863//863 693//693
f 695//695 864//864 696//696

