# https://github.com/mikedh/trimesh
mtllib material.mtl
usemtl material_0
v 0.46200871 0.02999997 0.27944049
v -0.46205720 0.02999991 0.27944049
v -0.46837321 0.02999991 0.30301261
v -0.46205720 0.02999991 0.23081911
v 0.46200871 0.02999991 0.23081900
v 0.46832481 0.02999991 0.20724700
v -0.46205720 0.00000000 0.27944049
v 0.46200871 0.00000000 0.27944049
v 0.46832481 0.00000000 0.30301261
v 0.46200871 0.00000000 0.23081900
v -0.46205720 0.00000000 0.23081911
v -0.46837321 0.00000000 0.20724700
v -1.07997298 0.02999991 0.49300280
v 1.08084500 0.00000000 0.49300280
v 1.08084500 0.02999991 0.49300280
v 1.08084500 0.02999991 0.49300280
v 1.08084500 0.00000000 0.10000000
v 1.08084500 0.02999991 0.10000000
v -1.07997298 0.02999991 0.10000000
v -1.07997298 0.00000000 0.49300280
v -1.07997298 0.02999991 0.49300280
v 0.73775482 0.02999991 0.23081900
v 0.73988181 0.00000000 0.25512981
v 0.73988181 0.02999991 0.25512981
v 0.73988181 0.02999991 0.25512981
v 0.73775482 0.00000000 0.27944049
v 0.73775482 0.02999991 0.27944049
v 0.73143882 0.02999991 0.20724700
v 0.73775482 0.00000000 0.23081900
v 0.73775482 0.02999991 0.23081900
v 0.73775482 0.02999991 0.27944049
v 0.73143882 0.00000000 0.30301261
v 0.73143882 0.02999991 0.30301261
v 0.72112542 0.02999991 0.18512981
v 0.73143882 0.00000000 0.20724700
v 0.73143882 0.02999991 0.20724700
v 0.73143882 0.02999991 0.30301261
v 0.72112542 0.00000000 0.32512981
v 0.72112542 0.02999991 0.32512981
v 0.62419248 0.02999991 0.39300290
v 0.59988183 0.00000000 0.39512980
v 0.59988183 0.02999991 0.39512980
v 0.59988183 0.02999991 0.39512980
v 0.57557112 0.00000000 0.39300290
v 0.57557112 0.02999991 0.39300290
v 0.64776462 0.02999991 0.38668680
v 0.62419248 0.00000000 0.39300290
v 0.62419248 0.02999991 0.39300290
v 0.68987203 0.02999991 0.36237600
v 0.66988182 0.00000000 0.37637341
v 0.66988182 0.02999991 0.37637341
v 0.66988182 0.02999991 0.37637341
v 0.64776462 0.00000000 0.38668680
v 0.64776462 0.02999991 0.38668680
v 0.70712811 0.02999991 0.34512010
v 0.68987203 0.00000000 0.36237600
v 0.68987203 0.02999991 0.36237600
v 0.72112542 0.02999991 0.18512981
v 0.70712811 0.00000000 0.16513950
v 0.72112542 0.00000000 0.18512981
v 0.72112542 0.02999991 0.32512981
v 0.70712811 0.00000000 0.34512010
v 0.70712811 0.02999991 0.34512010
v 0.68987203 0.02999997 0.14788350
v 0.70712811 0.00000000 0.16513950
v 0.70712811 0.02999997 0.16513950
v 0.66988182 0.02999991 0.13388620
v 0.68987203 0.00000000 0.14788350
v 0.68987203 0.02999997 0.14788350
v 0.62419248 0.02999991 0.11725670
v 0.64776462 0.00000000 0.12357280
v 0.64776462 0.02999991 0.12357280
v 0.64776462 0.02999991 0.12357280
v 0.66988182 0.00000000 0.13388620
v 0.66988182 0.02999991 0.13388620
v 0.57557112 0.02999991 0.11725670
v 0.59988183 0.00000000 0.11512980
v 0.59988183 0.02999991 0.11512980
v 0.59988183 0.02999991 0.11512980
v 0.62419248 0.00000000 0.11725670
v 0.62419248 0.02999991 0.11725670
v 0.57557112 0.02999991 0.39300290
v 0.55199897 0.00000000 0.38668680
v 0.55199897 0.02999991 0.38668680
v 0.55199897 0.02999991 0.38668680
v 0.52988172 0.00000000 0.37637341
v 0.52988172 0.02999991 0.37637341
v 0.55199897 0.02999991 0.12357280
v 0.57557112 0.00000000 0.11725670
v 0.57557112 0.02999991 0.11725670
v 0.52988172 0.02999991 0.13388620
v 0.50989151 0.00000000 0.14788350
v 0.52988172 0.00000000 0.13388620
v 0.52988172 0.02999991 0.13388620
v 0.55199897 0.00000000 0.12357280
v 0.55199897 0.02999991 0.12357280
v 0.49263549 0.02999997 0.16513950
v 0.50989151 0.00000000 0.14788350
v 0.50989151 0.02999997 0.14788350
v 0.52988172 0.02999991 0.37637341
v 0.50989151 0.00000000 0.36237600
v 0.50989151 0.02999991 0.36237600
v 0.50989151 0.02999991 0.36237600
v 0.49263549 0.00000000 0.34512010
v 0.49263549 0.02999991 0.34512010
v 0.49263549 0.02999991 0.34512010
v 0.47863820 0.00000000 0.32512981
v 0.47863820 0.02999991 0.32512981
v 0.47863820 0.02999991 0.18512981
v 0.49263549 0.00000000 0.16513950
v 0.49263549 0.02999997 0.16513950
v 0.47863820 0.02999991 0.32512981
v 0.46832481 0.00000000 0.30301261
v 0.46832481 0.02999997 0.30301261
v 0.46832481 0.02999991 0.20724700
v 0.47863820 0.00000000 0.18512981
v 0.47863820 0.02999991 0.18512981
v 0.45988181 0.02999991 0.25512981
v 0.46200871 0.00000000 0.27944049
v 0.45988181 0.00000000 0.25512981
v 0.46832481 0.02999997 0.30301261
v 0.46200871 0.00000000 0.27944049
v 0.46200871 0.02999997 0.27944049
v 0.46200871 0.02999991 0.23081900
v 0.46832481 0.00000000 0.20724700
v 0.46832481 0.02999991 0.20724700
v 0.45988181 0.02999991 0.25512981
v 0.46200871 0.00000000 0.23081900
v 0.46200871 0.02999991 0.23081900
v -0.46205720 0.02999991 0.23081911
v -0.45993030 0.00000000 0.25512981
v -0.45993030 0.02999991 0.25512981
v -0.45993030 0.02999991 0.25512981
v -0.46205720 0.00000000 0.27944049
v -0.46205720 0.02999991 0.27944049
v -0.55204749 0.02999991 0.38668680
v -0.57561958 0.00000000 0.39300290
v -0.57561958 0.02999991 0.39300290
v -0.57561958 0.02999991 0.39300290
v -0.59993029 0.00000000 0.39512980
v -0.59993029 0.02999991 0.39512980
v -0.52993017 0.02999991 0.37637341
v -0.55204749 0.00000000 0.38668680
v -0.55204749 0.02999991 0.38668680
v -0.49268401 0.02999991 0.34512010
v -0.50994003 0.00000000 0.36237600
v -0.50994003 0.02999991 0.36237600
v -0.50994003 0.02999991 0.36237600
v -0.52993017 0.00000000 0.37637341
v -0.52993017 0.02999991 0.37637341
v -0.47868660 0.02999991 0.32512981
v -0.49268401 0.00000000 0.34512010
v -0.49268401 0.02999991 0.34512010
v -0.46205720 0.02999991 0.27944049
v -0.46837321 0.00000000 0.30301261
v -0.46837321 0.02999991 0.30301261
v -0.46837321 0.02999991 0.30301261
v -0.47868660 0.00000000 0.32512981
v -0.47868660 0.02999991 0.32512981
v -0.46837321 0.02999991 0.20724700
v -0.46205720 0.00000000 0.23081911
v -0.46205720 0.02999991 0.23081911
v -0.49268401 0.02999991 0.16513950
v -0.47868660 0.00000000 0.18512981
v -0.47868660 0.02999991 0.18512981
v -0.47868660 0.02999991 0.18512981
v -0.46837321 0.00000000 0.20724700
v -0.46837321 0.02999991 0.20724700
v -0.50994003 0.02999991 0.14788350
v -0.49268401 0.00000000 0.16513950
v -0.49268401 0.02999991 0.16513950
v -0.52993017 0.02999991 0.13388620
v -0.50994003 0.00000000 0.14788350
v -0.50994003 0.02999991 0.14788350
v -0.55204749 0.02999991 0.12357280
v -0.52993017 0.00000000 0.13388620
v -0.52993017 0.02999991 0.13388620
v -0.59993029 0.02999991 0.11512980
v -0.57561958 0.00000000 0.11725670
v -0.57561958 0.02999991 0.11725670
v -0.57561958 0.02999991 0.11725670
v -0.55204749 0.00000000 0.12357280
v -0.55204749 0.02999991 0.12357280
v -0.59993029 0.02999991 0.39512980
v -0.62424099 0.00000000 0.39300290
v -0.62424099 0.02999991 0.39300290
v -0.64781308 0.02999991 0.38668680
v -0.66993028 0.00000000 0.37637341
v -0.66993028 0.02999991 0.37637341
v -0.62424099 0.02999991 0.39300290
v -0.64781308 0.00000000 0.38668680
v -0.64781308 0.02999991 0.38668680
v -0.66993028 0.02999991 0.37637341
v -0.68992060 0.00000000 0.36237600
v -0.68992060 0.02999991 0.36237600
v -0.70717663 0.02999991 0.34512010
v -0.72117388 0.00000000 0.32512981
v -0.72117388 0.02999991 0.32512981
v -0.68992060 0.02999991 0.36237600
v -0.70717663 0.00000000 0.34512010
v -0.70717663 0.02999991 0.34512010
v -0.73148727 0.02999991 0.30301261
v -0.73780328 0.00000000 0.27944049
v -0.73780328 0.02999991 0.27944049
v -0.73780328 0.02999991 0.27944049
v -0.73993027 0.00000000 0.25512981
v -0.73993027 0.02999991 0.25512981
v -0.72117388 0.02999991 0.32512981
v -0.73148727 0.00000000 0.30301261
v -0.73148727 0.02999991 0.30301261
v -0.73993027 0.02999991 0.25512981
v -0.73780328 0.00000000 0.23081911
v -0.73780328 0.02999991 0.23081911
v -0.72117388 0.02999991 0.18512981
v -0.70717663 0.00000000 0.16513950
v -0.70717663 0.02999991 0.16513950
v -0.73780328 0.02999991 0.23081911
v -0.73148727 0.00000000 0.20724700
v -0.73148727 0.02999991 0.20724700
v -0.73148727 0.02999991 0.20724700
v -0.72117388 0.00000000 0.18512981
v -0.72117388 0.02999991 0.18512981
v -0.70717663 0.02999991 0.16513950
v -0.68992060 0.00000000 0.14788350
v -0.68992060 0.02999991 0.14788350
v -0.68992060 0.02999991 0.14788350
v -0.66993028 0.00000000 0.13388620
v -0.66993028 0.02999991 0.13388620
v -0.64781308 0.02999991 0.12357280
v -0.62424099 0.00000000 0.11725670
v -0.62424099 0.02999991 0.11725670
v -0.66993028 0.02999991 0.13388620
v -0.64781308 0.00000000 0.12357280
v -0.64781308 0.02999991 0.12357280
v -0.62424099 0.02999991 0.11725670
v -0.59993029 0.00000000 0.11512980
v -0.59993029 0.02999991 0.11512980
v 1.08084500 0.00000000 0.10000000
v -1.07997298 0.02999991 0.10000000
v 1.08084500 0.02999991 0.10000000
v 1.08084500 0.02999991 0.49300280
v 0.73988181 0.02999991 0.25512981
v 0.73775482 0.02999991 0.27944049
v 0.73143882 0.02999991 0.30301261
v -0.73780328 0.02999991 0.27944049
v -0.73993027 0.02999991 0.25512981
v -1.07997298 0.02999991 0.49300280
v -0.73148727 0.02999991 0.30301261
v 0.72112542 0.02999991 0.32512981
v 0.70712811 0.02999991 0.34512010
v -0.72117388 0.02999991 0.32512981
v -0.70717663 0.02999991 0.34512010
v 0.68987203 0.02999991 0.36237600
v 0.66988182 0.02999991 0.37637341
v -0.68992060 0.02999991 0.36237600
v -0.66993028 0.02999991 0.37637341
v 0.64776462 0.02999991 0.38668680
v 0.62419248 0.02999991 0.39300290
v -0.64781308 0.02999991 0.38668680
v -0.62424099 0.02999991 0.39300290
v 0.59988183 0.02999991 0.39512980
v 0.57557112 0.02999991 0.39300290
v -0.59993029 0.02999991 0.39512980
v -0.57561958 0.02999991 0.39300290
v 0.55199897 0.02999991 0.38668680
v -0.55204749 0.02999991 0.38668680
v 0.52988172 0.02999991 0.37637341
v -0.52993017 0.02999991 0.37637341
v 0.50989151 0.02999991 0.36237600
v -0.50994003 0.02999991 0.36237600
v 0.49263549 0.02999991 0.34512010
v -0.49268401 0.02999991 0.34512010
v 0.47863820 0.02999991 0.32512981
v -0.47868660 0.02999991 0.32512981
v 0.46832481 0.02999997 0.30301261
v 0.45988181 0.02999991 0.25512981
v -0.45993030 0.02999991 0.25512981
v -1.07997298 0.02999991 0.10000000
v -0.73780328 0.02999991 0.23081911
v 1.08084500 0.02999991 0.10000000
v 0.73775482 0.02999991 0.23081900
v -0.73148727 0.02999991 0.20724700
v -0.72117388 0.02999991 0.18512981
v 0.73143882 0.02999991 0.20724700
v 0.72112542 0.02999991 0.18512981
v -0.70717663 0.02999991 0.16513950
v -0.68992060 0.02999991 0.14788350
v 0.70712811 0.02999997 0.16513950
v 0.68987203 0.02999997 0.14788350
v -0.66993028 0.02999991 0.13388620
v -0.64781308 0.02999991 0.12357280
v 0.66988182 0.02999991 0.13388620
v 0.64776462 0.02999991 0.12357280
v -0.62424099 0.02999991 0.11725670
v -0.59993029 0.02999991 0.11512980
v 0.62419248 0.02999991 0.11725670
v 0.59988183 0.02999991 0.11512980
v -0.57561958 0.02999991 0.11725670
v 0.57557112 0.02999991 0.11725670
v -0.55204749 0.02999991 0.12357280
v 0.55199897 0.02999991 0.12357280
v -0.52993017 0.02999991 0.13388620
v 0.52988172 0.02999991 0.13388620
v -0.50994003 0.02999991 0.14788350
v 0.50989151 0.02999997 0.14788350
v -0.49268401 0.02999991 0.16513950
v 0.49263549 0.02999997 0.16513950
v -0.47868660 0.02999991 0.18512981
v 0.47863820 0.02999991 0.18512981
v -0.46837321 0.02999991 0.20724700
v -1.07997298 0.00000000 0.49300280
v -0.73993027 0.00000000 0.25512981
v -0.73780328 0.00000000 0.27944049
v -0.73148727 0.00000000 0.30301261
v 0.73775482 0.00000000 0.27944049
v 0.73988181 0.00000000 0.25512981
v 1.08084500 0.00000000 0.49300280
v 0.73143882 0.00000000 0.30301261
v -0.72117388 0.00000000 0.32512981
v -0.70717663 0.00000000 0.34512010
v 0.72112542 0.00000000 0.32512981
v 0.70712811 0.00000000 0.34512010
v -0.68992060 0.00000000 0.36237600
v -0.66993028 0.00000000 0.37637341
v 0.68987203 0.00000000 0.36237600
v 0.66988182 0.00000000 0.37637341
v -0.64781308 0.00000000 0.38668680
v -0.62424099 0.00000000 0.39300290
v 0.64776462 0.00000000 0.38668680
v 0.62419248 0.00000000 0.39300290
v -0.59993029 0.00000000 0.39512980
v -0.57561958 0.00000000 0.39300290
v 0.59988183 0.00000000 0.39512980
v 0.57557112 0.00000000 0.39300290
v -0.55204749 0.00000000 0.38668680
v 0.55199897 0.00000000 0.38668680
v -0.52993017 0.00000000 0.37637341
v 0.52988172 0.00000000 0.37637341
v -0.50994003 0.00000000 0.36237600
v 0.50989151 0.00000000 0.36237600
v -0.49268401 0.00000000 0.34512010
v 0.49263549 0.00000000 0.34512010
v -0.47868660 0.00000000 0.32512981
v 0.47863820 0.00000000 0.32512981
v -0.46837321 0.00000000 0.30301261
v -0.45993030 0.00000000 0.25512981
v 0.45988181 0.00000000 0.25512981
v 1.08084500 0.00000000 0.10000000
v 0.73775482 0.00000000 0.23081900
v -1.07997298 0.00000000 0.10000000
v -0.73780328 0.00000000 0.23081911
v 0.73143882 0.00000000 0.20724700
v 0.72112542 0.00000000 0.18512981
v -0.73148727 0.00000000 0.20724700
v -0.72117388 0.00000000 0.18512981
v 0.70712811 0.00000000 0.16513950
v 0.68987203 0.00000000 0.14788350
v -0.70717663 0.00000000 0.16513950
v -0.68992060 0.00000000 0.14788350
v 0.66988182 0.00000000 0.13388620
v 0.64776462 0.00000000 0.12357280
v -0.66993028 0.00000000 0.13388620
v -0.64781308 0.00000000 0.12357280
v 0.62419248 0.00000000 0.11725670
v 0.59988183 0.00000000 0.11512980
v -0.62424099 0.00000000 0.11725670
v -0.59993029 0.00000000 0.11512980
v 0.57557112 0.00000000 0.11725670
v -0.57561958 0.00000000 0.11725670
v 0.55199897 0.00000000 0.12357280
v -0.55204749 0.00000000 0.12357280
v 0.52988172 0.00000000 0.13388620
v -0.52993017 0.00000000 0.13388620
v 0.50989151 0.00000000 0.14788350
v -0.50994003 0.00000000 0.14788350
v 0.49263549 0.00000000 0.16513950
v -0.49268401 0.00000000 0.16513950
v 0.47863820 0.00000000 0.18512981
v -0.47868660 0.00000000 0.18512981
v 0.46832481 0.00000000 0.20724700
v -1.07997298 0.00000000 0.49300280
v 1.08084500 0.00000000 0.49300280
v -1.07997298 0.00000000 0.10000000
v 0.73775482 0.00000000 0.23081900
v 0.73988181 0.00000000 0.25512981
v 0.73143882 0.00000000 0.20724700
v 0.73775482 0.00000000 0.27944049
v 0.72112542 0.00000000 0.18512981
v 0.73143882 0.00000000 0.30301261
v 0.62419248 0.00000000 0.39300290
v 0.59988183 0.00000000 0.39512980
v 0.64776462 0.00000000 0.38668680
v 0.68987203 0.00000000 0.36237600
v 0.66988182 0.00000000 0.37637341
v 0.70712811 0.00000000 0.34512010
v 0.70712811 0.02999997 0.16513950
v 0.72112542 0.00000000 0.32512981
v 0.68987203 0.00000000 0.14788350
v 0.66988182 0.00000000 0.13388620
v 0.62419248 0.00000000 0.11725670
v 0.64776462 0.00000000 0.12357280
v 0.57557112 0.00000000 0.11725670
v 0.59988183 0.00000000 0.11512980
v 0.57557112 0.00000000 0.39300290
v 0.55199897 0.00000000 0.38668680
v 0.55199897 0.00000000 0.12357280
v 0.50989151 0.02999997 0.14788350
v 0.52988172 0.00000000 0.13388620
v 0.49263549 0.00000000 0.16513950
v 0.52988172 0.00000000 0.37637341
v 0.50989151 0.00000000 0.36237600
v 0.49263549 0.00000000 0.34512010
v 0.47863820 0.00000000 0.18512981
v 0.47863820 0.00000000 0.32512981
v 0.46832481 0.00000000 0.20724700
v 0.46200871 0.02999997 0.27944049
v 0.46832481 0.00000000 0.30301261
v 0.46200871 0.00000000 0.23081900
v 0.45988181 0.00000000 0.25512981
v -0.46205720 0.00000000 0.23081911
v -0.45993030 0.00000000 0.25512981
v -0.55204749 0.00000000 0.38668680
v -0.57561958 0.00000000 0.39300290
v -0.52993017 0.00000000 0.37637341
v -0.49268401 0.00000000 0.34512010
v -0.50994003 0.00000000 0.36237600
v -0.47868660 0.00000000 0.32512981
v -0.46205720 0.00000000 0.27944049
v -0.46837321 0.00000000 0.30301261
v -0.46837321 0.00000000 0.20724700
v -0.49268401 0.00000000 0.16513950
v -0.47868660 0.00000000 0.18512981
v -0.50994003 0.00000000 0.14788350
v -0.52993017 0.00000000 0.13388620
v -0.55204749 0.00000000 0.12357280
v -0.59993029 0.00000000 0.11512980
v -0.57561958 0.00000000 0.11725670
v -0.59993029 0.00000000 0.39512980
v -0.64781308 0.00000000 0.38668680
v -0.62424099 0.00000000 0.39300290
v -0.66993028 0.00000000 0.37637341
v -0.70717663 0.00000000 0.34512010
v -0.68992060 0.00000000 0.36237600
v -0.73148727 0.00000000 0.30301261
v -0.73780328 0.00000000 0.27944049
v -0.72117388 0.00000000 0.32512981
v -0.73993027 0.00000000 0.25512981
v -0.72117388 0.00000000 0.18512981
v -0.73780328 0.00000000 0.23081911
v -0.73148727 0.00000000 0.20724700
v -0.70717663 0.00000000 0.16513950
v -0.68992060 0.00000000 0.14788350
v -0.64781308 0.00000000 0.12357280
v -0.66993028 0.00000000 0.13388620
v -0.62424099 0.00000000 0.11725670
v -1.07997298 0.00000000 0.10000000
vn 0.00000000 1.00000000 0.00000000
vn 0.00000000 1.00000000 0.00000000
vn 0.00000000 1.00000000 0.00000000
vn 0.00000000 1.00000000 0.00000000
vn 0.00000000 1.00000000 0.00000000
vn 0.00000000 1.00000000 0.00000000
vn 0.00000000 -1.00000000 0.00000000
vn 0.00000000 -1.00000000 0.00000000
vn 0.00000000 -1.00000000 0.00000000
vn 0.00000000 -1.00000000 0.00000000
vn 0.00000000 -1.00000000 0.00000000
vn 0.00000000 -1.00000000 0.00000000
vn 0.00000000 0.00000000 1.00000000
vn 0.00000000 0.00000000 1.00000000
vn 0.00000000 0.00000000 1.00000000
vn 1.00000000 0.00000000 0.00000000
vn 1.00000000 0.00000000 0.00000000
vn 1.00000000 0.00000000 0.00000000
vn -1.00000000 0.00000000 0.00000000
vn -1.00000000 0.00000000 0.00000000
vn -1.00000000 0.00000000 0.00000000
vn -0.99619472 0.00000000 0.08715635
vn -0.99619472 0.00000000 0.08715635
vn -0.99619472 0.00000000 0.08715635
vn -0.99619460 0.00000000 -0.08715647
vn -0.99619460 0.00000000 -0.08715647
vn -0.99619460 0.00000000 -0.08715647
vn -0.96592629 0.00000000 0.25881720
vn -0.96592629 0.00000000 0.25881720
vn -0.96592629 0.00000000 0.25881720
vn -0.96592641 0.00000000 -0.25881690
vn -0.96592641 0.00000000 -0.25881690
vn -0.96592641 0.00000000 -0.25881690
vn -0.90630811 0.00000000 0.42261761
vn -0.90630811 0.00000000 0.42261761
vn -0.90630811 0.00000000 0.42261761
vn -0.90630788 0.00000000 -0.42261779
vn -0.90630788 0.00000000 -0.42261779
vn -0.90630788 0.00000000 -0.42261779
vn -0.08715534 0.00000000 -0.99619472
vn -0.08715534 0.00000000 -0.99619472
vn -0.08715534 0.00000000 -0.99619472
vn 0.08715534 0.00000000 -0.99619472
vn 0.08715534 0.00000000 -0.99619472
vn 0.08715534 0.00000000 -0.99619472
vn -0.25881800 0.00000000 -0.96592611
vn -0.25881800 0.00000000 -0.96592611
vn -0.25881800 0.00000000 -0.96592611
vn -0.57357711 0.00000000 -0.81915158
vn -0.57357711 0.00000000 -0.81915158
vn -0.57357711 0.00000000 -0.81915158
vn -0.42261839 0.00000000 -0.90630770
vn -0.42261839 0.00000000 -0.90630770
vn -0.42261839 0.00000000 -0.90630770
vn -0.70710552 0.00000000 -0.70710802
vn -0.70710552 0.00000000 -0.70710802
vn -0.70710552 0.00000000 -0.70710802
vn -0.81915241 0.00000000 0.57357591
vn -0.81915241 0.00000000 0.57357591
vn -0.81915241 0.00000000 0.57357591
vn -0.81915241 0.00000000 -0.57357597
vn -0.81915241 0.00000000 -0.57357597
vn -0.81915241 0.00000000 -0.57357597
vn -0.70710552 0.00000000 0.70710802
vn -0.70710552 0.00000000 0.70710802
vn -0.70710552 0.00000000 0.70710802
vn -0.57357752 0.00000000 0.81915122
vn -0.57357752 0.00000000 0.81915122
vn -0.57357752 0.00000000 0.81915122
vn -0.25881860 0.00000000 0.96592587
vn -0.25881860 0.00000000 0.96592587
vn -0.25881860 0.00000000 0.96592587
vn -0.42261741 0.00000000 0.90630817
vn -0.42261741 0.00000000 0.90630817
vn -0.42261741 0.00000000 0.90630817
vn 0.08715593 0.00000000 0.99619472
vn 0.08715593 0.00000000 0.99619472
vn 0.08715593 0.00000000 0.99619472
vn -0.08715593 0.00000000 0.99619472
vn -0.08715593 0.00000000 0.99619472
vn -0.08715593 0.00000000 0.99619472
vn 0.25881800 0.00000000 -0.96592611
vn 0.25881800 0.00000000 -0.96592611
vn 0.25881800 0.00000000 -0.96592611
vn 0.42261839 0.00000000 -0.90630770
vn 0.42261839 0.00000000 -0.90630770
vn 0.42261839 0.00000000 -0.90630770
vn 0.25881860 0.00000000 0.96592587
vn 0.25881860 0.00000000 0.96592587
vn 0.25881860 0.00000000 0.96592587
vn 0.57357752 0.00000000 0.81915122
vn 0.57357752 0.00000000 0.81915122
vn 0.57357752 0.00000000 0.81915122
vn 0.42261741 0.00000000 0.90630817
vn 0.42261741 0.00000000 0.90630817
vn 0.42261741 0.00000000 0.90630817
vn 0.70710617 0.00000000 0.70710742
vn 0.70710617 0.00000000 0.70710742
vn 0.70710617 0.00000000 0.70710742
vn 0.57357711 0.00000000 -0.81915158
vn 0.57357711 0.00000000 -0.81915158
vn 0.57357711 0.00000000 -0.81915158
vn 0.70710617 0.00000000 -0.70710742
vn 0.70710617 0.00000000 -0.70710742
vn 0.70710617 0.00000000 -0.70710742
vn 0.81915241 0.00000000 -0.57357597
vn 0.81915241 0.00000000 -0.57357597
vn 0.81915241 0.00000000 -0.57357597
vn 0.81915241 0.00000000 0.57357597
vn 0.81915241 0.00000000 0.57357597
vn 0.81915241 0.00000000 0.57357597
vn 0.90630788 0.00000000 -0.42261779
vn 0.90630788 0.00000000 -0.42261779
vn 0.90630788 0.00000000 -0.42261779
vn 0.90630811 0.00000000 0.42261761
vn 0.90630811 0.00000000 0.42261761
vn 0.90630811 0.00000000 0.42261761
vn 0.99619472 0.00000000 -0.08715647
vn 0.99619472 0.00000000 -0.08715647
vn 0.99619472 0.00000000 -0.08715647
vn 0.96592641 0.00000000 -0.25881690
vn 0.96592641 0.00000000 -0.25881690
vn 0.96592641 0.00000000 -0.25881690
vn 0.96592629 0.00000000 0.25881720
vn 0.96592629 0.00000000 0.25881720
vn 0.96592629 0.00000000 0.25881720
vn 0.99619472 0.00000000 0.08715635
vn 0.99619472 0.00000000 0.08715635
vn 0.99619472 0.00000000 0.08715635
vn -0.99619472 0.00000000 0.08715641
vn -0.99619472 0.00000000 0.08715641
vn -0.99619472 0.00000000 0.08715641
vn -0.99619460 0.00000000 -0.08715647
vn -0.99619460 0.00000000 -0.08715647
vn -0.99619460 0.00000000 -0.08715647
vn -0.25881800 0.00000000 -0.96592611
vn -0.25881800 0.00000000 -0.96592611
vn -0.25881800 0.00000000 -0.96592611
vn -0.08715534 0.00000000 -0.99619472
vn -0.08715534 0.00000000 -0.99619472
vn -0.08715534 0.00000000 -0.99619472
vn -0.42261839 0.00000000 -0.90630770
vn -0.42261839 0.00000000 -0.90630770
vn -0.42261839 0.00000000 -0.90630770
vn -0.70710498 0.00000000 -0.70710862
vn -0.70710498 0.00000000 -0.70710862
vn -0.70710498 0.00000000 -0.70710862
vn -0.57357711 0.00000000 -0.81915158
vn -0.57357711 0.00000000 -0.81915158
vn -0.57357711 0.00000000 -0.81915158
vn -0.81915241 0.00000000 -0.57357597
vn -0.81915241 0.00000000 -0.57357597
vn -0.81915241 0.00000000 -0.57357597
vn -0.96592641 0.00000000 -0.25881690
vn -0.96592641 0.00000000 -0.25881690
vn -0.96592641 0.00000000 -0.25881690
vn -0.90630788 0.00000000 -0.42261779
vn -0.90630788 0.00000000 -0.42261779
vn -0.90630788 0.00000000 -0.42261779
vn -0.96592641 0.00000000 0.25881711
vn -0.96592641 0.00000000 0.25881711
vn -0.96592641 0.00000000 0.25881711
vn -0.81915259 0.00000000 0.57357562
vn -0.81915259 0.00000000 0.57357562
vn -0.81915259 0.00000000 0.57357562
vn -0.90630811 0.00000000 0.42261761
vn -0.90630811 0.00000000 0.42261761
vn -0.90630811 0.00000000 0.42261761
vn -0.70710462 0.00000000 0.70710891
vn -0.70710462 0.00000000 0.70710891
vn -0.70710462 0.00000000 0.70710891
vn -0.57357752 0.00000000 0.81915122
vn -0.57357752 0.00000000 0.81915122
vn -0.57357752 0.00000000 0.81915122
vn -0.42261741 0.00000000 0.90630817
vn -0.42261741 0.00000000 0.90630817
vn -0.42261741 0.00000000 0.90630817
vn -0.08715593 0.00000000 0.99619472
vn -0.08715593 0.00000000 0.99619472
vn -0.08715593 0.00000000 0.99619472
vn -0.25881860 0.00000000 0.96592587
vn -0.25881860 0.00000000 0.96592587
vn -0.25881860 0.00000000 0.96592587
vn 0.08715534 0.00000000 -0.99619472
vn 0.08715534 0.00000000 -0.99619472
vn 0.08715534 0.00000000 -0.99619472
vn 0.42261839 0.00000000 -0.90630770
vn 0.42261839 0.00000000 -0.90630770
vn 0.42261839 0.00000000 -0.90630770
vn 0.25881800 0.00000000 -0.96592611
vn 0.25881800 0.00000000 -0.96592611
vn 0.25881800 0.00000000 -0.96592611
vn 0.57357711 0.00000000 -0.81915158
vn 0.57357711 0.00000000 -0.81915158
vn 0.57357711 0.00000000 -0.81915158
vn 0.81915241 0.00000000 -0.57357597
vn 0.81915241 0.00000000 -0.57357597
vn 0.81915241 0.00000000 -0.57357597
vn 0.70710552 0.00000000 -0.70710802
vn 0.70710552 0.00000000 -0.70710802
vn 0.70710552 0.00000000 -0.70710802
vn 0.96592641 0.00000000 -0.25881690
vn 0.96592641 0.00000000 -0.25881690
vn 0.96592641 0.00000000 -0.25881690
vn 0.99619460 0.00000000 -0.08715647
vn 0.99619460 0.00000000 -0.08715647
vn 0.99619460 0.00000000 -0.08715647
vn 0.90630788 0.00000000 -0.42261779
vn 0.90630788 0.00000000 -0.42261779
vn 0.90630788 0.00000000 -0.42261779
vn 0.99619472 0.00000000 0.08715641
vn 0.99619472 0.00000000 0.08715641
vn 0.99619472 0.00000000 0.08715641
vn 0.81915259 0.00000000 0.57357562
vn 0.81915259 0.00000000 0.57357562
vn 0.81915259 0.00000000 0.57357562
vn 0.96592641 0.00000000 0.25881711
vn 0.96592641 0.00000000 0.25881711
vn 0.96592641 0.00000000 0.25881711
vn 0.90630811 0.00000000 0.42261761
vn 0.90630811 0.00000000 0.42261761
vn 0.90630811 0.00000000 0.42261761
vn 0.70710522 0.00000000 0.70710832
vn 0.70710522 0.00000000 0.70710832
vn 0.70710522 0.00000000 0.70710832
vn 0.57357752 0.00000000 0.81915122
vn 0.57357752 0.00000000 0.81915122
vn 0.57357752 0.00000000 0.81915122
vn 0.25881860 0.00000000 0.96592587
vn 0.25881860 0.00000000 0.96592587
vn 0.25881860 0.00000000 0.96592587
vn 0.42261741 0.00000000 0.90630817
vn 0.42261741 0.00000000 0.90630817
vn 0.42261741 0.00000000 0.90630817
vn 0.08715593 0.00000000 0.99619472
vn 0.08715593 0.00000000 0.99619472
vn 0.08715593 0.00000000 0.99619472
vn 0.00000000 0.00000000 -1.00000000
vn 0.00000000 0.00000000 -1.00000000
vn 0.00000000 0.00000000 -1.00000000
vn 0.00000000 1.00000000 0.00000000
vn 0.00000000 1.00000000 0.00000000
vn 0.00000000 1.00000000 0.00000000
vn 0.00000000 1.00000000 0.00000000
vn 0.00000000 1.00000000 0.00000000
vn 0.00000000 1.00000000 0.00000000
vn 0.00000000 1.00000000 0.00000000
vn 0.00000000 1.00000000 0.00000000
vn 0.00000000 1.00000000 0.00000000
vn 0.00000000 1.00000000 0.00000000
vn 0.00000000 1.00000000 0.00000000
vn 0.00000000 1.00000000 0.00000000
vn 0.00000000 1.00000000 0.00000000
vn 0.00000000 1.00000000 0.00000000
vn 0.00000000 1.00000000 0.00000000
vn 0.00000000 1.00000000 0.00000000
vn 0.00000000 1.00000000 0.00000000
vn 0.00000000 1.00000000 0.00000000
vn 0.00000000 1.00000000 0.00000000
vn 0.00000000 1.00000000 0.00000000
vn 0.00000000 1.00000000 0.00000000
vn 0.00000000 1.00000000 0.00000000
vn 0.00000000 1.00000000 0.00000000
vn 0.00000000 1.00000000 0.00000000
vn 0.00000000 1.00000000 0.00000000
vn 0.00000000 1.00000000 0.00000000
vn 0.00000000 1.00000000 0.00000000
vn 0.00000000 1.00000000 0.00000000
vn 0.00000000 1.00000000 0.00000000
vn 0.00000000 1.00000000 0.00000000
vn 0.00000000 1.00000000 0.00000000
vn 0.00000000 1.00000000 0.00000000
vn 0.00000000 1.00000000 0.00000000
vn 0.00000000 1.00000000 0.00000000
vn 0.00000000 1.00000000 0.00000135
vn 0.00000000 1.00000000 -0.00000123
vn 0.00000000 1.00000000 -0.00000123
vn 0.00000000 1.00000000 0.00000000
vn 0.00000000 1.00000000 0.00000000
vn 0.00000000 1.00000000 0.00000000
vn 0.00000000 1.00000000 0.00000000
vn 0.00000000 1.00000000 0.00000000
vn 0.00000000 1.00000000 0.00000000
vn 0.00000000 1.00000000 0.00000000
vn 0.00000000 1.00000000 0.00000000
vn 0.00000000 1.00000000 0.00000000
vn 0.00000000 1.00000000 0.00000000
vn 0.00000030 1.00000000 0.00000128
vn 0.00000000 1.00000000 0.00000000
vn 0.00000000 1.00000000 0.00000000
vn 0.00000000 1.00000000 0.00000000
vn -0.00000016 1.00000000 -0.00000190
vn 0.00000000 1.00000000 0.00000000
vn 0.00000000 1.00000000 0.00000000
vn 0.00000000 1.00000000 0.00000000
vn 0.00000000 1.00000000 0.00000000
vn 0.00000000 1.00000000 0.00000000
vn 0.00000000 1.00000000 0.00000000
vn 0.00000000 1.00000000 0.00000000
vn 0.00000000 1.00000000 0.00000000
vn 0.00000000 1.00000000 0.00000000
vn 0.00000000 1.00000000 0.00000000
vn 0.00000000 1.00000000 0.00000000
vn 0.00000000 1.00000000 0.00000000
vn 0.00000000 1.00000000 -0.00000217
vn 0.00000000 1.00000000 0.00000000
vn 0.00000000 1.00000000 0.00000000
vn 0.00000000 1.00000000 0.00000000
vn 0.00000000 1.00000000 0.00000149
vn 0.00000000 1.00000000 0.00000000
vn 0.00000000 -1.00000000 0.00000000
vn 0.00000000 -1.00000000 0.00000000
vn 0.00000000 -1.00000000 0.00000000
vn 0.00000000 -1.00000000 0.00000000
vn 0.00000000 -1.00000000 0.00000000
vn 0.00000000 -1.00000000 0.00000000
vn 0.00000000 -1.00000000 0.00000000
vn 0.00000000 -1.00000000 0.00000000
vn 0.00000000 -1.00000000 0.00000000
vn 0.00000000 -1.00000000 0.00000000
vn 0.00000000 -1.00000000 0.00000000
vn 0.00000000 -1.00000000 0.00000000
vn 0.00000000 -1.00000000 0.00000000
vn 0.00000000 -1.00000000 0.00000000
vn 0.00000000 -1.00000000 0.00000000
vn 0.00000000 -1.00000000 0.00000000
vn 0.00000000 -1.00000000 0.00000000
vn 0.00000000 -1.00000000 0.00000000
vn 0.00000000 -1.00000000 0.00000000
vn 0.00000000 -1.00000000 0.00000000
vn 0.00000000 -1.00000000 0.00000000
vn 0.00000000 -1.00000000 0.00000000
vn 0.00000000 -1.00000000 0.00000000
vn 0.00000000 -1.00000000 0.00000000
vn 0.00000000 -1.00000000 0.00000000
vn 0.00000000 -1.00000000 0.00000000
vn 0.00000000 -1.00000000 0.00000000
vn 0.00000000 -1.00000000 0.00000000
vn 0.00000000 -1.00000000 0.00000000
vn 0.00000000 -1.00000000 0.00000000
vn 0.00000000 -1.00000000 0.00000000
vn 0.00000000 -1.00000000 0.00000000
vn 0.00000000 -1.00000000 0.00000000
vn 0.00000000 -1.00000000 0.00000000
vn 0.00000000 -1.00000000 0.00000000
vn 0.00000000 -1.00000000 0.00000000
vn 0.00000000 -1.00000000 0.00000000
vn 0.00000000 -1.00000000 0.00000000
vn 0.00000000 -1.00000000 0.00000000
vn 0.00000000 -1.00000000 0.00000000
vn 0.00000000 -1.00000000 0.00000000
vn 0.00000000 -1.00000000 0.00000000
vn 0.00000000 -1.00000000 0.00000000
vn 0.00000000 -1.00000000 0.00000000
vn 0.00000000 -1.00000000 0.00000000
vn -0.00000030 -1.00000000 -0.00000128
vn 0.00000000 -1.00000000 0.00000000
vn 0.00000000 -1.00000000 0.00000000
vn 0.00000000 -1.00000000 0.00000000
vn 0.00000016 -1.00000000 0.00000190
vn 0.00000000 -1.00000000 0.00000000
vn 0.00000000 -1.00000000 0.00000000
vn 0.00000000 -1.00000000 0.00000000
vn 0.00000000 -1.00000000 0.00000000
vn 0.00000000 -1.00000000 0.00000000
vn 0.00000000 -1.00000000 0.00000000
vn 0.00000000 -1.00000000 0.00000000
vn 0.00000000 -1.00000000 0.00000000
vn 0.00000000 -1.00000000 0.00000000
vn 0.00000000 -1.00000000 0.00000000
vn 0.00000000 -1.00000000 0.00000000
vn 0.00000000 -1.00000000 0.00000000
vn 0.00000000 -1.00000000 0.00000000
vn 0.00000000 -1.00000000 0.00000213
vn 0.00000000 -1.00000000 0.00000000
vn 0.00000000 -1.00000000 0.00000000
vn 0.00000000 -1.00000000 0.00000000
vn 0.00000000 -1.00000000 -0.00000147
vn 0.00000000 -1.00000000 0.00000000
vn 0.00000000 -1.00000000 0.00000000
vn 0.00000000 0.00000000 1.00000000
vn 1.00000000 0.00000000 0.00000000
vn -1.00000000 0.00000000 0.00000000
vn -0.99619472 0.00000000 0.08715635
vn -0.99619460 0.00000000 -0.08715647
vn -0.96592629 0.00000000 0.25881720
vn -0.96592641 0.00000000 -0.25881690
vn -0.90630811 0.00000000 0.42261761
vn -0.90630788 0.00000000 -0.42261779
vn -0.08715534 0.00000000 -0.99619472
vn 0.08715534 0.00000000 -0.99619472
vn -0.25881800 0.00000000 -0.96592611
vn -0.57357711 0.00000000 -0.81915158
vn -0.42261839 0.00000000 -0.90630770
vn -0.70710552 0.00000000 -0.70710802
vn -0.81915241 0.00000000 0.57357597
vn -0.81915241 0.00000000 -0.57357597
vn -0.70710552 0.00000000 0.70710802
vn -0.57357752 0.00000000 0.81915122
vn -0.25881860 0.00000000 0.96592587
vn -0.42261741 0.00000000 0.90630817
vn 0.08715593 0.00000000 0.99619472
vn -0.08715593 0.00000000 0.99619472
vn 0.25881800 0.00000000 -0.96592611
vn 0.42261839 0.00000000 -0.90630770
vn 0.25881860 0.00000000 0.96592587
vn 0.57357752 0.00000000 0.81915122
vn 0.42261741 0.00000000 0.90630817
vn 0.70710617 0.00000000 0.70710742
vn 0.57357711 0.00000000 -0.81915158
vn 0.70710617 0.00000000 -0.70710742
vn 0.81915241 0.00000000 -0.57357597
vn 0.81915241 0.00000000 0.57357597
vn 0.90630788 0.00000000 -0.42261779
vn 0.90630811 0.00000000 0.42261761
vn 0.99619460 0.00000000 -0.08715647
vn 0.96592641 0.00000000 -0.25881690
vn 0.96592629 0.00000000 0.25881720
vn 0.99619472 0.00000000 0.08715635
vn -0.99619472 0.00000000 0.08715641
vn -0.99619460 0.00000000 -0.08715647
vn -0.25881800 0.00000000 -0.96592611
vn -0.08715534 0.00000000 -0.99619472
vn -0.42261839 0.00000000 -0.90630770
vn -0.70710498 0.00000000 -0.70710862
vn -0.57357711 0.00000000 -0.81915158
vn -0.81915241 0.00000000 -0.57357597
vn -0.96592641 0.00000000 -0.25881690
vn -0.90630788 0.00000000 -0.42261779
vn -0.96592641 0.00000000 0.25881711
vn -0.81915259 0.00000000 0.57357562
vn -0.90630811 0.00000000 0.42261761
vn -0.70710462 0.00000000 0.70710891
vn -0.57357752 0.00000000 0.81915122
vn -0.42261741 0.00000000 0.90630817
vn -0.08715593 0.00000000 0.99619472
vn -0.25881860 0.00000000 0.96592587
vn 0.08715534 0.00000000 -0.99619472
vn 0.42261839 0.00000000 -0.90630770
vn 0.25881800 0.00000000 -0.96592611
vn 0.57357711 0.00000000 -0.81915158
vn 0.81915241 0.00000000 -0.57357597
vn 0.70710552 0.00000000 -0.70710802
vn 0.96592641 0.00000000 -0.25881690
vn 0.99619460 0.00000000 -0.08715647
vn 0.90630788 0.00000000 -0.42261779
vn 0.99619472 0.00000000 0.08715641
vn 0.81915259 0.00000000 0.57357562
vn 0.96592641 0.00000000 0.25881711
vn 0.90630811 0.00000000 0.42261761
vn 0.70710522 0.00000000 0.70710832
vn 0.57357752 0.00000000 0.81915122
vn 0.25881860 0.00000000 0.96592587
vn 0.42261741 0.00000000 0.90630817
vn 0.08715593 0.00000000 0.99619472
vn 0.00000000 0.00000000 -1.00000000
vt 0.17001410 0.73217702
vt 0.17117099 0.72117013
vt 0.17100370 0.72086418
vt 0.17153320 0.72164983
vt 0.17058709 0.73344368
vt 0.17085910 0.73414087
vt 0.17117099 0.72117013
vt 0.17001410 0.73217702
vt 0.16972791 0.73163629
vt 0.17058709 0.73344368
vt 0.17153320 0.72164983
vt 0.17171469 0.72179919
vt 0.17090879 0.71377838
vt 0.16616599 0.73190528
vt 0.16616599 0.73190528
vt 0.16616599 0.73190528
vt 0.17219910 0.74692887
vt 0.17219910 0.74692887
vt 0.17289720 0.71377838
vt 0.17090879 0.71377838
vt 0.17090879 0.71377838
vt 0.17030540 0.73696560
vt 0.16998400 0.73623687
vt 0.16998400 0.73623687
vt 0.16998400 0.73623687
vt 0.16966760 0.73545641
vt 0.16966760 0.73545641
vt 0.17062031 0.73761332
vt 0.17030540 0.73696560
vt 0.17030540 0.73696560
vt 0.16966760 0.73545641
vt 0.16936740 0.73465413
vt 0.16936740 0.73465413
vt 0.17091750 0.73815483
vt 0.17062031 0.73761332
vt 0.17062031 0.73761332
vt 0.16936740 0.73465413
vt 0.16909429 0.73386008
vt 0.16909429 0.73386008
vt 0.16839230 0.73084950
vt 0.16840960 0.73054922
vt 0.16840960 0.73054922
vt 0.16840960 0.73054922
vt 0.16847910 0.73036742
vt 0.16847910 0.73036742
vt 0.16842900 0.73126417
vt 0.16839230 0.73084950
vt 0.16839230 0.73084950
vt 0.16866399 0.73240399
vt 0.16852009 0.73178607
vt 0.16852009 0.73178607
vt 0.16852009 0.73178607
vt 0.16842900 0.73126417
vt 0.16842900 0.73126417
vt 0.16885731 0.73310190
vt 0.16866399 0.73240399
vt 0.16866399 0.73240399
vt 0.17091750 0.73815483
vt 0.17118680 0.73856992
vt 0.17091750 0.73815483
vt 0.16909429 0.73386008
vt 0.16885731 0.73310190
vt 0.16885731 0.73310190
vt 0.17141990 0.73884428
vt 0.17118680 0.73856992
vt 0.17118680 0.73856992
vt 0.17160989 0.73897058
vt 0.17141990 0.73884428
vt 0.17141990 0.73884428
vt 0.17184231 0.73878211
vt 0.17175169 0.73894823
vt 0.17175169 0.73894823
vt 0.17175169 0.73894823
vt 0.17160989 0.73897058
vt 0.17160989 0.73897058
vt 0.17186581 0.73806357
vt 0.17188030 0.73848242
vt 0.17188030 0.73848242
vt 0.17188030 0.73848242
vt 0.17184231 0.73878211
vt 0.17184231 0.73878211
vt 0.16847910 0.73036742
vt 0.16859740 0.73030478
vt 0.16859740 0.73030478
vt 0.16859740 0.73030478
vt 0.16875990 0.73035938
vt 0.16875990 0.73035938
vt 0.17180090 0.73754358
vt 0.17186581 0.73806357
vt 0.17186581 0.73806357
vt 0.17168839 0.73694181
vt 0.17153260 0.73627961
vt 0.17168839 0.73694181
vt 0.17168839 0.73694181
vt 0.17180090 0.73754358
vt 0.17180090 0.73754358
vt 0.17133839 0.73557812
vt 0.17153260 0.73627961
vt 0.17153260 0.73627961
vt 0.16875990 0.73035938
vt 0.16896079 0.73052698
vt 0.16896079 0.73052698
vt 0.16896079 0.73052698
vt 0.16919389 0.73080122
vt 0.16919389 0.73080122
vt 0.16919389 0.73080122
vt 0.16945200 0.73117411
vt 0.16945200 0.73117411
vt 0.17111181 0.73485857
vt 0.17133839 0.73557812
vt 0.17133839 0.73557812
vt 0.16945200 0.73117411
vt 0.16972791 0.73163629
vt 0.16972791 0.73163629
vt 0.17085910 0.73414087
vt 0.17111181 0.73485857
vt 0.17111181 0.73485857
vt 0.17030300 0.73278397
vt 0.17001410 0.73217702
vt 0.17030300 0.73278397
vt 0.16972791 0.73163629
vt 0.17001410 0.73217702
vt 0.17001410 0.73217702
vt 0.17058709 0.73344368
vt 0.17085910 0.73414087
vt 0.17085910 0.73414087
vt 0.17030300 0.73278397
vt 0.17058709 0.73344368
vt 0.17058709 0.73344368
vt 0.17153320 0.72164983
vt 0.17134970 0.72143620
vt 0.17134970 0.72143620
vt 0.17134970 0.72143620
vt 0.17117099 0.72117013
vt 0.17117099 0.72117013
vt 0.17052470 0.71919018
vt 0.17052139 0.71890062
vt 0.17052139 0.71890062
vt 0.17052139 0.71890062
vt 0.17055009 0.71864247
vt 0.17055009 0.71864247
vt 0.17056060 0.71950603
vt 0.17052470 0.71919018
vt 0.17052470 0.71919018
vt 0.17072780 0.72018683
vt 0.17062891 0.71984118
vt 0.17062891 0.71984118
vt 0.17062891 0.71984118
vt 0.17056060 0.71950603
vt 0.17056060 0.71950603
vt 0.17085420 0.72053200
vt 0.17072780 0.72018683
vt 0.17072780 0.72018683
vt 0.17117099 0.72117013
vt 0.17100370 0.72086418
vt 0.17100370 0.72086418
vt 0.17100370 0.72086418
vt 0.17085420 0.72053200
vt 0.17085420 0.72053200
vt 0.17171469 0.72179919
vt 0.17153320 0.72164983
vt 0.17153320 0.72164983
vt 0.17204539 0.72187448
vt 0.17188740 0.72187603
vt 0.17188740 0.72187603
vt 0.17188740 0.72187603
vt 0.17171469 0.72179919
vt 0.17171469 0.72179919
vt 0.17218310 0.72179288
vt 0.17204539 0.72187448
vt 0.17204539 0.72187448
vt 0.17229649 0.72163349
vt 0.17218310 0.72179288
vt 0.17218310 0.72179288
vt 0.17238240 0.72140211
vt 0.17229649 0.72163349
vt 0.17229649 0.72163349
vt 0.17246550 0.72076660
vt 0.17243899 0.72110891
vt 0.17243899 0.72110891
vt 0.17243899 0.72110891
vt 0.17238240 0.72140211
vt 0.17238240 0.72140211
vt 0.17055009 0.71864247
vt 0.17060830 0.71841872
vt 0.17060830 0.71841872
vt 0.17069300 0.71823072
vt 0.17080030 0.71807921
vt 0.17080030 0.71807921
vt 0.17060830 0.71841872
vt 0.17069300 0.71823072
vt 0.17069300 0.71823072
vt 0.17080030 0.71807921
vt 0.17092571 0.71796429
vt 0.17092571 0.71796429
vt 0.17106441 0.71788621
vt 0.17121200 0.71784598
vt 0.17121200 0.71784598
vt 0.17092571 0.71796429
vt 0.17106441 0.71788621
vt 0.17106441 0.71788621
vt 0.17136420 0.71784627
vt 0.17151760 0.71789068
vt 0.17151760 0.71789068
vt 0.17151760 0.71789068
vt 0.17166869 0.71798331
vt 0.17166869 0.71798331
vt 0.17121200 0.71784598
vt 0.17136420 0.71784627
vt 0.17136420 0.71784627
vt 0.17166869 0.71798331
vt 0.17181490 0.71812791
vt 0.17181490 0.71812791
vt 0.17208180 0.71857983
vt 0.17219689 0.71888268
vt 0.17219689 0.71888268
vt 0.17181490 0.71812791
vt 0.17195350 0.71832693
vt 0.17195350 0.71832693
vt 0.17195350 0.71832693
vt 0.17208180 0.71857983
vt 0.17208180 0.71857983
vt 0.17219689 0.71888268
vt 0.17229579 0.71922821
vt 0.17229579 0.71922821
vt 0.17229579 0.71922821
vt 0.17237499 0.71960449
vt 0.17237499 0.71960449
vt 0.17243160 0.71999753
vt 0.17246249 0.72039032
vt 0.17246249 0.72039032
vt 0.17237499 0.71960449
vt 0.17243160 0.71999753
vt 0.17243160 0.71999753
vt 0.17246249 0.72039032
vt 0.17246550 0.72076660
vt 0.17246550 0.72076660
vt 0.17219910 0.74692887
vt 0.17289720 0.71377838
vt 0.17219910 0.74692887
vt 0.16616599 0.73190528
vt 0.16998400 0.73623687
vt 0.16966760 0.73545641
vt 0.16936740 0.73465413
vt 0.17151760 0.71789068
vt 0.17166869 0.71798331
vt 0.17090879 0.71377838
vt 0.17136420 0.71784627
vt 0.16909429 0.73386008
vt 0.16885731 0.73310190
vt 0.17121200 0.71784598
vt 0.17106441 0.71788621
vt 0.16866399 0.73240399
vt 0.16852009 0.73178607
vt 0.17092571 0.71796429
vt 0.17080030 0.71807921
vt 0.16842900 0.73126417
vt 0.16839230 0.73084950
vt 0.17069300 0.71823072
vt 0.17060830 0.71841872
vt 0.16840960 0.73054922
vt 0.16847910 0.73036742
vt 0.17055009 0.71864247
vt 0.17052139 0.71890062
vt 0.16859740 0.73030478
vt 0.17052470 0.71919018
vt 0.16875990 0.73035938
vt 0.17056060 0.71950603
vt 0.16896079 0.73052698
vt 0.17062891 0.71984118
vt 0.16919389 0.73080122
vt 0.17072780 0.72018683
vt 0.16945200 0.73117411
vt 0.17085420 0.72053200
vt 0.16972791 0.73163629
vt 0.17030300 0.73278397
vt 0.17134970 0.72143620
vt 0.17289720 0.71377838
vt 0.17181490 0.71812791
vt 0.17219910 0.74692887
vt 0.17030540 0.73696560
vt 0.17195350 0.71832693
vt 0.17208180 0.71857983
vt 0.17062031 0.73761332
vt 0.17091750 0.73815483
vt 0.17219689 0.71888268
vt 0.17229579 0.71922821
vt 0.17118680 0.73856992
vt 0.17141990 0.73884428
vt 0.17237499 0.71960449
vt 0.17243160 0.71999753
vt 0.17160989 0.73897058
vt 0.17175169 0.73894823
vt 0.17246249 0.72039032
vt 0.17246550 0.72076660
vt 0.17184231 0.73878211
vt 0.17188030 0.73848242
vt 0.17243899 0.72110891
vt 0.17186581 0.73806357
vt 0.17238240 0.72140211
vt 0.17180090 0.73754358
vt 0.17229649 0.72163349
vt 0.17168839 0.73694181
vt 0.17218310 0.72179288
vt 0.17153260 0.73627961
vt 0.17204539 0.72187448
vt 0.17133839 0.73557812
vt 0.17188740 0.72187603
vt 0.17111181 0.73485857
vt 0.17171469 0.72179919
vt 0.17090879 0.71377838
vt 0.17166869 0.71798331
vt 0.17151760 0.71789068
vt 0.17136420 0.71784627
vt 0.16966760 0.73545641
vt 0.16998400 0.73623687
vt 0.16616599 0.73190528
vt 0.16936740 0.73465413
vt 0.17121200 0.71784598
vt 0.17106441 0.71788621
vt 0.16909429 0.73386008
vt 0.16885731 0.73310190
vt 0.17092571 0.71796429
vt 0.17080030 0.71807921
vt 0.16866399 0.73240399
vt 0.16852009 0.73178607
vt 0.17069300 0.71823072
vt 0.17060830 0.71841872
vt 0.16842900 0.73126417
vt 0.16839230 0.73084950
vt 0.17055009 0.71864247
vt 0.17052139 0.71890062
vt 0.16840960 0.73054922
vt 0.16847910 0.73036742
vt 0.17052470 0.71919018
vt 0.16859740 0.73030478
vt 0.17056060 0.71950603
vt 0.16875990 0.73035938
vt 0.17062891 0.71984118
vt 0.16896079 0.73052698
vt 0.17072780 0.72018683
vt 0.16919389 0.73080122
vt 0.17085420 0.72053200
vt 0.16945200 0.73117411
vt 0.17100370 0.72086418
vt 0.17134970 0.72143620
vt 0.17030300 0.73278397
vt 0.17219910 0.74692887
vt 0.17030540 0.73696560
vt 0.17289720 0.71377838
vt 0.17181490 0.71812791
vt 0.17062031 0.73761332
vt 0.17091750 0.73815483
vt 0.17195350 0.71832693
vt 0.17208180 0.71857983
vt 0.17118680 0.73856992
vt 0.17141990 0.73884428
vt 0.17219689 0.71888268
vt 0.17229579 0.71922821
vt 0.17160989 0.73897058
vt 0.17175169 0.73894823
vt 0.17237499 0.71960449
vt 0.17243160 0.71999753
vt 0.17184231 0.73878211
vt 0.17188030 0.73848242
vt 0.17246249 0.72039032
vt 0.17246550 0.72076660
vt 0.17186581 0.73806357
vt 0.17243899 0.72110891
vt 0.17180090 0.73754358
vt 0.17238240 0.72140211
vt 0.17168839 0.73694181
vt 0.17229649 0.72163349
vt 0.17153260 0.73627961
vt 0.17218310 0.72179288
vt 0.17133839 0.73557812
vt 0.17204539 0.72187448
vt 0.17111181 0.73485857
vt 0.17188740 0.72187603
vt 0.17085910 0.73414087
vt 0.17090879 0.71377838
vt 0.16616599 0.73190528
vt 0.17289720 0.71377838
vt 0.17030540 0.73696560
vt 0.16998400 0.73623687
vt 0.17062031 0.73761332
vt 0.16966760 0.73545641
vt 0.17091750 0.73815483
vt 0.16936740 0.73465413
vt 0.16839230 0.73084950
vt 0.16840960 0.73054922
vt 0.16842900 0.73126417
vt 0.16866399 0.73240399
vt 0.16852009 0.73178607
vt 0.16885731 0.73310190
vt 0.17118680 0.73856992
vt 0.16909429 0.73386008
vt 0.17141990 0.73884428
vt 0.17160989 0.73897058
vt 0.17184231 0.73878211
vt 0.17175169 0.73894823
vt 0.17186581 0.73806357
vt 0.17188030 0.73848242
vt 0.16847910 0.73036742
vt 0.16859740 0.73030478
vt 0.17180090 0.73754358
vt 0.17153260 0.73627961
vt 0.17168839 0.73694181
vt 0.17133839 0.73557812
vt 0.16875990 0.73035938
vt 0.16896079 0.73052698
vt 0.16919389 0.73080122
vt 0.17111181 0.73485857
vt 0.16945200 0.73117411
vt 0.17085910 0.73414087
vt 0.17001410 0.73217702
vt 0.16972791 0.73163629
vt 0.17058709 0.73344368
vt 0.17030300 0.73278397
vt 0.17153320 0.72164983
vt 0.17134970 0.72143620
vt 0.17052470 0.71919018
vt 0.17052139 0.71890062
vt 0.17056060 0.71950603
vt 0.17072780 0.72018683
vt 0.17062891 0.71984118
vt 0.17085420 0.72053200
vt 0.17117099 0.72117013
vt 0.17100370 0.72086418
vt 0.17171469 0.72179919
vt 0.17204539 0.72187448
vt 0.17188740 0.72187603
vt 0.17218310 0.72179288
vt 0.17229649 0.72163349
vt 0.17238240 0.72140211
vt 0.17246550 0.72076660
vt 0.17243899 0.72110891
vt 0.17055009 0.71864247
vt 0.17069300 0.71823072
vt 0.17060830 0.71841872
vt 0.17080030 0.71807921
vt 0.17106441 0.71788621
vt 0.17092571 0.71796429
vt 0.17136420 0.71784627
vt 0.17151760 0.71789068
vt 0.17121200 0.71784598
vt 0.17166869 0.71798331
vt 0.17208180 0.71857983
vt 0.17181490 0.71812791
vt 0.17195350 0.71832693
vt 0.17219689 0.71888268
vt 0.17229579 0.71922821
vt 0.17243160 0.71999753
vt 0.17237499 0.71960449
vt 0.17246249 0.72039032
vt 0.17289720 0.71377838
f 1/1/1 2/2/2 3/3/3
f 4/4/4 5/5/5 6/6/6
f 7/7/7 8/8/8 9/9/9
f 10/10/10 11/11/11 12/12/12
f 13/13/13 14/14/14 15/15/15
f 16/16/16 17/17/17 18/18/18
f 19/19/19 20/20/20 21/21/21
f 22/22/22 23/23/23 24/24/24
f 25/25/25 26/26/26 27/27/27
f 28/28/28 29/29/29 30/30/30
f 31/31/31 32/32/32 33/33/33
f 34/34/34 35/35/35 36/36/36
f 37/37/37 38/38/38 39/39/39
f 40/40/40 41/41/41 42/42/42
f 43/43/43 44/44/44 45/45/45
f 46/46/46 47/47/47 48/48/48
f 49/49/49 50/50/50 51/51/51
f 52/52/52 53/53/53 54/54/54
f 55/55/55 56/56/56 57/57/57
f 58/58/58 59/59/59 60/60/60
f 61/61/61 62/62/62 63/63/63
f 64/64/64 65/65/65 66/66/66
f 67/67/67 68/68/68 69/69/69
f 70/70/70 71/71/71 72/72/72
f 73/73/73 74/74/74 75/75/75
f 76/76/76 77/77/77 78/78/78
f 79/79/79 80/80/80 81/81/81
f 82/82/82 83/83/83 84/84/84
f 85/85/85 86/86/86 87/87/87
f 88/88/88 89/89/89 90/90/90
f 91/91/91 92/92/92 93/93/93
f 94/94/94 95/95/95 96/96/96
f 97/97/97 98/98/98 99/99/99
f 100/100/100 101/101/101 102/102/102
f 103/103/103 104/104/104 105/105/105
f 106/106/106 107/107/107 108/108/108
f 109/109/109 110/110/110 111/111/111
f 112/112/112 113/113/113 114/114/114
f 115/115/115 116/116/116 117/117/117
f 118/118/118 119/119/119 120/120/120
f 121/121/121 122/122/122 123/123/123
f 124/124/124 125/125/125 126/126/126
f 127/127/127 128/128/128 129/129/129
f 130/130/130 131/131/131 132/132/132
f 133/133/133 134/134/134 135/135/135
f 136/136/136 137/137/137 138/138/138
f 139/139/139 140/140/140 141/141/141
f 142/142/142 143/143/143 144/144/144
f 145/145/145 146/146/146 147/147/147
f 148/148/148 149/149/149 150/150/150
f 151/151/151 152/152/152 153/153/153
f 154/154/154 155/155/155 156/156/156
f 157/157/157 158/158/158 159/159/159
f 160/160/160 161/161/161 162/162/162
f 163/163/163 164/164/164 165/165/165
f 166/166/166 167/167/167 168/168/168
f 169/169/169 170/170/170 171/171/171
f 172/172/172 173/173/173 174/174/174
f 175/175/175 176/176/176 177/177/177
f 178/178/178 179/179/179 180/180/180
f 181/181/181 182/182/182 183/183/183
f 184/184/184 185/185/185 186/186/186
f 187/187/187 188/188/188 189/189/189
f 190/190/190 191/191/191 192/192/192
f 193/193/193 194/194/194 195/195/195
f 196/196/196 197/197/197 198/198/198
f 199/199/199 200/200/200 201/201/201
f 202/202/202 203/203/203 204/204/204
f 205/205/205 206/206/206 207/207/207
f 208/208/208 209/209/209 210/210/210
f 211/211/211 212/212/212 213/213/213
f 214/214/214 215/215/215 216/216/216
f 217/217/217 218/218/218 219/219/219
f 220/220/220 221/221/221 222/222/222
f 223/223/223 224/224/224 225/225/225
f 226/226/226 227/227/227 228/228/228
f 229/229/229 230/230/230 231/231/231
f 232/232/232 233/233/233 234/234/234
f 235/235/235 236/236/236 237/237/237
f 238/238/238 239/239/239 240/240/240
f 241/241/241 242/242/242 243/243/243
f 241/241/241 243/243/243 244/244/244
f 245/245/245 246/246/246 247/247/247
f 248/248/248 245/245/245 247/247/247
f 241/241/241 244/244/244 249/249/249
f 241/241/241 249/249/249 250/250/250
f 251/251/251 248/248/248 247/247/247
f 252/252/252 251/251/251 247/247/247
f 241/241/241 250/250/250 253/253/253
f 241/241/241 253/253/253 254/254/254
f 255/255/255 252/252/252 247/247/247
f 256/256/256 255/255/255 247/247/247
f 241/241/241 254/254/254 257/257/257
f 241/241/241 257/257/257 258/258/258
f 259/259/259 256/256/256 247/247/247
f 260/260/260 259/259/259 247/247/247
f 241/241/241 258/258/258 261/261/261
f 241/241/241 261/261/261 262/262/262
f 263/263/263 260/260/260 247/247/247
f 264/264/264 263/263/263 247/247/247
f 247/247/247 241/241/241 262/262/262
f 247/247/247 262/262/262 264/264/264
f 262/262/262 265/265/265 264/264/264
f 264/264/264 265/265/265 266/266/266
f 265/265/265 267/267/267 266/266/266
f 266/266/266 267/267/267 268/268/268
f 267/267/267 269/269/269 268/268/268
f 268/268/268 269/269/269 270/270/270
f 269/269/269 271/271/271 270/270/270
f 270/270/270 271/271/271 272/272/272
f 271/271/271 273/273/273 272/272/272
f 272/272/272 273/273/273 274/274/274
f 273/273/273 275/275/275 274/274/274
f 1/1/1 276/276/276 277/277/277
f 274/274/274 275/275/275 3/3/3
f 275/275/275 1/1/1 3/3/3
f 1/1/1 277/277/277 2/2/2
f 278/278/278 247/247/247 246/246/246
f 278/278/278 246/246/246 279/279/279
f 242/242/242 241/241/241 280/280/280
f 281/281/281 242/242/242 280/280/280
f 278/278/278 279/279/279 282/282/282
f 278/278/278 282/282/282 283/283/283
f 284/284/284 281/281/281 280/280/280
f 285/285/285 284/284/284 280/280/280
f 278/278/278 283/283/283 286/286/286
f 278/278/278 286/286/286 287/287/287
f 288/288/288 285/285/285 280/280/280
f 289/289/289 288/288/288 280/280/280
f 278/278/278 287/287/287 290/290/290
f 278/278/278 290/290/290 291/291/291
f 292/292/292 289/289/289 280/280/280
f 293/293/293 292/292/292 280/280/280
f 278/278/278 291/291/291 294/294/294
f 278/278/278 294/294/294 295/295/295
f 296/296/296 293/293/293 280/280/280
f 297/297/297 296/296/296 280/280/280
f 280/280/280 278/278/278 297/297/297
f 278/278/278 295/295/295 297/297/297
f 295/295/295 298/298/298 297/297/297
f 297/297/297 298/298/298 299/299/299
f 298/298/298 300/300/300 299/299/299
f 299/299/299 300/300/300 301/301/301
f 300/300/300 302/302/302 301/301/301
f 301/301/301 302/302/302 303/303/303
f 302/302/302 304/304/304 303/303/303
f 303/303/303 304/304/304 305/305/305
f 304/304/304 306/306/306 305/305/305
f 305/305/305 306/306/306 307/307/307
f 306/306/306 308/308/308 307/307/307
f 307/307/307 308/308/308 309/309/309
f 308/308/308 310/310/310 309/309/309
f 4/4/4 277/277/277 5/5/5
f 277/277/277 276/276/276 5/5/5
f 309/309/309 310/310/310 6/6/6
f 310/310/310 4/4/4 6/6/6
f 311/311/311 312/312/312 313/313/313
f 311/311/311 313/313/313 314/314/314
f 315/315/315 316/316/316 317/317/317
f 318/318/318 315/315/315 317/317/317
f 311/311/311 314/314/314 319/319/319
f 311/311/311 319/319/319 320/320/320
f 321/321/321 318/318/318 317/317/317
f 322/322/322 321/321/321 317/317/317
f 311/311/311 320/320/320 323/323/323
f 311/311/311 323/323/323 324/324/324
f 325/325/325 322/322/322 317/317/317
f 326/326/326 325/325/325 317/317/317
f 311/311/311 324/324/324 327/327/327
f 311/311/311 327/327/327 328/328/328
f 329/329/329 326/326/326 317/317/317
f 330/330/330 329/329/329 317/317/317
f 311/311/311 328/328/328 331/331/331
f 311/311/311 331/331/331 332/332/332
f 333/333/333 330/330/330 317/317/317
f 334/334/334 333/333/333 317/317/317
f 317/317/317 311/311/311 334/334/334
f 311/311/311 332/332/332 334/334/334
f 332/332/332 335/335/335 334/334/334
f 334/334/334 335/335/335 336/336/336
f 335/335/335 337/337/337 336/336/336
f 336/336/336 337/337/337 338/338/338
f 337/337/337 339/339/339 338/338/338
f 338/338/338 339/339/339 340/340/340
f 339/339/339 341/341/341 340/340/340
f 340/340/340 341/341/341 342/342/342
f 341/341/341 343/343/343 342/342/342
f 342/342/342 343/343/343 344/344/344
f 343/343/343 345/345/345 344/344/344
f 7/7/7 346/346/346 347/347/347
f 344/344/344 345/345/345 9/9/9
f 345/345/345 7/7/7 9/9/9
f 7/7/7 347/347/347 8/8/8
f 348/348/348 317/317/317 316/316/316
f 348/348/348 316/316/316 349/349/349
f 312/312/312 311/311/311 350/350/350
f 351/351/351 312/312/312 350/350/350
f 348/348/348 349/349/349 352/352/352
f 348/348/348 352/352/352 353/353/353
f 354/354/354 351/351/351 350/350/350
f 355/355/355 354/354/354 350/350/350
f 348/348/348 353/353/353 356/356/356
f 348/348/348 356/356/356 357/357/357
f 358/358/358 355/355/355 350/350/350
f 359/359/359 358/358/358 350/350/350
f 348/348/348 357/357/357 360/360/360
f 348/348/348 360/360/360 361/361/361
f 362/362/362 359/359/359 350/350/350
f 363/363/363 362/362/362 350/350/350
f 348/348/348 361/361/361 364/364/364
f 348/348/348 364/364/364 365/365/365
f 366/366/366 363/363/363 350/350/350
f 367/367/367 366/366/366 350/350/350
f 350/350/350 348/348/348 365/365/365
f 350/350/350 365/365/365 367/367/367
f 365/365/365 368/368/368 367/367/367
f 367/367/367 368/368/368 369/369/369
f 368/368/368 370/370/370 369/369/369
f 369/369/369 370/370/370 371/371/371
f 370/370/370 372/372/372 371/371/371
f 371/371/371 372/372/372 373/373/373
f 372/372/372 374/374/374 373/373/373
f 373/373/373 374/374/374 375/375/375
f 374/374/374 376/376/376 375/375/375
f 375/375/375 376/376/376 377/377/377
f 376/376/376 378/378/378 377/377/377
f 377/377/377 378/378/378 379/379/379
f 378/378/378 380/380/380 379/379/379
f 10/10/10 347/347/347 346/346/346
f 379/379/379 380/380/380 12/12/12
f 380/380/380 10/10/10 12/12/12
f 10/10/10 346/346/346 11/11/11
f 13/13/13 381/381/381 14/14/14
f 16/16/16 382/382/382 17/17/17
f 19/19/19 383/383/383 20/20/20
f 22/22/22 384/384/384 23/23/23
f 25/25/25 385/385/385 26/26/26
f 28/28/28 386/386/386 29/29/29
f 31/31/31 387/387/387 32/32/32
f 34/34/34 388/388/388 35/35/35
f 37/37/37 389/389/389 38/38/38
f 40/40/40 390/390/390 41/41/41
f 43/43/43 391/391/391 44/44/44
f 46/46/46 392/392/392 47/47/47
f 49/49/49 393/393/393 50/50/50
f 52/52/52 394/394/394 53/53/53
f 55/55/55 395/395/395 56/56/56
f 58/58/58 396/396/396 59/59/59
f 61/61/61 397/397/397 62/62/62
f 64/64/64 398/398/398 65/65/65
f 67/67/67 399/399/399 68/68/68
f 70/70/70 400/400/400 71/71/71
f 73/73/73 401/401/401 74/74/74
f 76/76/76 402/402/402 77/77/77
f 79/79/79 403/403/403 80/80/80
f 82/82/82 404/404/404 83/83/83
f 85/85/85 405/405/405 86/86/86
f 88/88/88 406/406/406 89/89/89
f 91/91/91 407/407/407 92/92/92
f 94/94/94 408/408/408 95/95/95
f 97/97/97 409/409/409 98/98/98
f 100/100/100 410/410/410 101/101/101
f 103/103/103 411/411/411 104/104/104
f 106/106/106 412/412/412 107/107/107
f 109/109/109 413/413/413 110/110/110
f 112/112/112 414/414/414 113/113/113
f 115/115/115 415/415/415 116/116/116
f 118/118/118 416/416/416 119/119/119
f 121/121/121 417/417/417 122/122/122
f 124/124/124 418/418/418 125/125/125
f 127/127/127 419/419/419 128/128/128
f 130/130/130 420/420/420 131/131/131
f 133/133/133 421/421/421 134/134/134
f 136/136/136 422/422/422 137/137/137
f 139/139/139 423/423/423 140/140/140
f 142/142/142 424/424/424 143/143/143
f 145/145/145 425/425/425 146/146/146
f 148/148/148 426/426/426 149/149/149
f 151/151/151 427/427/427 152/152/152
f 154/154/154 428/428/428 155/155/155
f 157/157/157 429/429/429 158/158/158
f 160/160/160 430/430/430 161/161/161
f 163/163/163 431/431/431 164/164/164
f 166/166/166 432/432/432 167/167/167
f 169/169/169 433/433/433 170/170/170
f 172/172/172 434/434/434 173/173/173
f 175/175/175 435/435/435 176/176/176
f 178/178/178 436/436/436 179/179/179
f 181/181/181 437/437/437 182/182/182
f 184/184/184 438/438/438 185/185/185
f 187/187/187 439/439/439 188/188/188
f 190/190/190 440/440/440 191/191/191
f 193/193/193 441/441/441 194/194/194
f 196/196/196 442/442/442 197/197/197
f 199/199/199 443/443/443 200/200/200
f 202/202/202 444/444/444 203/203/203
f 205/205/205 445/445/445 206/206/206
f 208/208/208 446/446/446 209/209/209
f 211/211/211 447/447/447 212/212/212
f 214/214/214 448/448/448 215/215/215
f 217/217/217 449/449/449 218/218/218
f 220/220/220 450/450/450 221/221/221
f 223/223/223 451/451/451 224/224/224
f 226/226/226 452/452/452 227/227/227
f 229/229/229 453/453/453 230/230/230
f 232/232/232 454/454/454 233/233/233
f 235/235/235 455/455/455 236/236/236
f 238/238/238 456/456/456 239/239/239

